<svg xmlns="http://www.w3.org/2000/svg" width="152" height="167" viewBox="0 0 152 167">
  <g fill="none" fill-rule="evenodd">
    <g transform="translate(2 4)">
      <path stroke="#D5DBED" stroke-width="2" d="M141.470216 122.17299L141.470216 117.189497 145.042726 117.189497C146.124071 117.189497 147 116.304065 147 115.211967L147 110.534065C147 109.440988 146.124071 108.555556 145.042726 108.555556 143.961381 108.555556 143.084483 109.440988 143.084483 110.534065L143.084483 113.232478 141.470216 113.232478 141.470216 105.933541C141.470216 104.622044 140.964426 103.429061 140.137914 102.545588 139.247451 101.593553 137.98685 101 136.589628 101 133.893047 101 131.70807 103.208683 131.70807 105.933541L131.70807 113.232478 127.958243 113.232478C126.875929 113.232478 126 114.11791 126 115.211967L126 119.888889C126 120.980987 126.875929 121.867398 127.958243 121.867398 129.038619 121.867398 129.915517 120.980987 129.915517 119.888889L129.915517 117.189497 131.70807 117.189497 131.70807 127.644254 131.694505 131.042002 127.958243 131.042002C126.875929 131.042002 126 131.928413 126 133.020511 126 134.113589 126.875929 135 127.958243 135L133.652748 135C134.734093 135 135.610022 134.113589 135.610022 133.020511L135.610022 129.243713 137.034375 129.243713 141.470216 129.243713 143.084483 129.243713 143.084483 133.020511C143.084483 134.113589 143.961381 135 145.042726 135 146.124071 135 147 134.113589 147 133.020511L147 127.264224C147 126.171146 146.124071 125.285714 145.042726 125.285714L141.470216 125.285714M40.9027137 51.2873074C40.9094543 50.1958375 40.0428027 49.3068175 38.9691176 49.2999714L35.4187347 49.278455 35.4659191 41.1951222 39.0163019 41.2166386C40.089987 41.2225067 40.9662681 40.344245 40.9730088 39.251797L40.9999712 34.5817529C41.0057489 33.4902829 40.1400602 32.601263 39.0663751 32.5944169 37.9917271 32.5875708 37.115446 33.4677885 37.1096683 34.5592585L37.0932982 37.2527247 35.4890298 37.2439226 35.5313994 29.9557198C35.539103 28.6461514 35.0431856 27.4519893 34.2266072 26.5649255 33.3474373 25.6084222 32.098496 25.0079181 30.7089645 25.0000939 28.030048 24.9834676 25.8451229 27.1761878 25.8297158 29.8970386L25.7873461 37.1852414 22.0607441 37.1627469C20.986096 37.1568788 20.1098149 38.0361185 20.1030743 39.1266105L20.0761118 43.7976326C20.0703341 44.8891026 20.9360228 45.7791005 22.0097079 45.7849686 23.0843559 45.7918147 23.9606371 44.911597 23.9673777 43.821105L23.9827848 41.1266608 25.7642354 41.137419 25.7035698 51.5758233 25.6708296 54.9685736 21.9567459 54.9460791C20.8820978 54.939233 20.0058167 55.8194507 20.0000391 56.9109207 19.9932984 58.0014127 20.8599501 58.8914106 21.9336352 58.8982567L27.5938333 58.9315094C28.6675184 58.9383556 29.5437995 58.0591158 29.5505401 56.9676459L29.5717249 53.1954239 30.987256 53.203248 35.395624 53.2306326 37.0008554 53.2404128 36.9787076 57.0126348C36.971967 58.1031267 37.8376557 58.9931247 38.9123037 58.9999708 39.9869518 59.0058389 40.8632329 58.1265992 40.8690106 57.0351292L40.8834547 54.6027942M149 58.999538C149 60.6563992 147.657116 62 146 62 144.342884 62 143 60.6563992 143 58.999538 143 57.3436008 144.342884 56 146 56 147.657116 56 149 57.3436008 149 58.999538zM31 129L31 135M34 132L28 132M52-.70761842e-17L52 6M55 3L49 3M142 73L140 75M134 81L132 83M142 83L140 81M134 75L132 73" stroke-linecap="round" stroke-linejoin="round"/>
      <path fill="#7289DA" d="M110.355924,90.8570032 C114.578107,90.8570032 118,87.4169073 118,83.174448 L118,65.0162143 C118,60.7727778 114.578107,57.3326818 110.355924,57.3326818 C106.134714,57.3326818 102.71282,60.7727778 102.71282,65.0162143 L102.71282,75.4918929 L96.407746,75.4918929 L96.407746,47.156057 C96.407746,36.5758074 87.8748918,28 77.3476348,28 C66.8203778,28 58.2875236,36.5758074 58.2875236,47.156057 L58.2875236,54.7594509 L58.2875236,75.4918929 L43.644076,75.4918929 C39.4228657,75.4918929 36,78.9319888 36,83.174448 L36,101.333659 C36,105.577096 39.4228657,109.015237 43.644076,109.015237 C47.8662587,109.015237 51.2881521,105.577096 51.2881521,101.333659 L51.2881521,90.8570032 L58.2875236,90.8570032 L58.2875236,120.036249 C58.2564066,120.316734 58.2369585,120.601128 58.2369585,120.888455 L58.2369585,144.63489 L43.644076,144.63489 C39.4228657,144.63489 36,148.074986 36,152.317445 C36,156.559904 39.4228657,160 43.644076,160 L65.8820069,160 C70.1032172,160 73.526083,156.559904 73.526083,152.317445 L73.526083,137.651104 L79.0853226,137.651104 L96.407746,137.651104 L102.71282,137.651104 L102.71282,152.317445 C102.71282,156.559904 106.134714,160 110.355924,160 C114.578107,160 118,156.559904 118,152.317445 L118,129.968549 C118,125.725112 114.578107,122.285016 110.355924,122.285016 L96.407746,122.285016 L96.407746,90.8570032 L110.355924,90.8570032 Z"/>
      <path fill="#869DEE" d="M102.592526,135.821172 L102.592526,151.365981 C102.592526,154.731903 104.77167,157.582156 107.79238,158.597954 C110.817944,157.583128 113,154.733845 113,151.365981 L113,130.129404 C113,125.912777 109.583258,122.494414 105.368629,122.494414 L96.299703,122.494414 L94.1448259,122.494414 C92.6548546,122.494414 91.4463763,121.286334 91.4463763,119.795656 L91.4463763,92.0224323 C91.4463763,90.5317543 92.6548546,89.3227028 94.1448259,89.3227028 L96.299703,89.3227028 L105.368629,89.3227028 C109.583258,89.3227028 113,85.9053115 113,81.6886838 L113,64.877527 C113,61.478587 110.852888,58.4477038 107.780733,57.3882056 C104.764875,58.4078876 102.592526,61.2552281 102.592526,64.6162942 L102.592526,75.9969161 L97.7391997,75.9969161 L96.299703,75.9969161 L94.1467673,75.9969161 C92.6548546,75.9969161 91.4463763,74.7868935 91.4463763,73.2952444 L91.4463763,47.3254012 C91.4463763,37.6024908 84.3265461,29.244012 74.8819724,28 C65.5053453,29.1789466 58.24671,37.1683976 58.24671,46.8689722 L58.24671,54.4253012 L58.24671,75.0257904 L53.3933833,75.0257904 L43.6294607,75.0257904 C39.4158025,75.0257904 36.0000312,78.4441529 36.0000312,82.6598095 L36.0000312,100.704296 C36.0000312,104.069246 38.1791749,106.9195 41.1998854,107.936269 C44.2244786,106.921443 46.4075049,104.071189 46.4075049,100.704296 L46.4075049,90.2938285 L51.2608316,90.2938285 L53.3933833,90.2938285 L58.24671,90.2938285 L58.24671,119.289699 C58.2156487,119.567441 58.197206,119.850039 58.197206,120.136521 L58.197206,143.731962 L53.3438794,143.731962 L43.8915404,143.731962 C39.8273646,143.731962 36.2786122,146.800719 36.0165325,150.858082 C35.7282449,155.303896 39.2478774,159 43.6294607,159 L60.9742795,159 C65.1879377,159 68.6046797,155.582609 68.6046797,151.365981 L68.6046797,138.520901 C68.6046797,137.029252 69.8121874,135.821172 71.3031293,135.821172 L73.4580064,135.821172 L74.1539734,135.821172 L79.0073001,135.821172 L91.4463763,135.821172 L96.299703,135.821172 L97.7391997,135.821172 L102.592526,135.821172 Z"/>
      <path stroke="#1E2126" stroke-width="2" d="M58.2865512 54.7602301L58.2865512 75.4925185 43.6431036 75.4925185C39.4218933 75.4925185 36 78.9316117 36 83.1740396L36 101.333116C36 105.576521 39.4218933 109.015614 43.6431036 109.015614 47.8652863 109.015614 51.2881521 105.576521 51.2881521 101.333116L51.2881521 90.8575152 58.2865512 90.8575152 58.2865512 120.036545C58.2554342 120.316051 58.2369585 120.600443 58.2369585 120.888744L58.2369585 144.635003 43.6431036 144.635003C39.4218933 144.635003 36 148.074097 36 152.316524 36 156.55993 39.4218933 160 43.6431036 160L65.8810345 160C70.1022448 160 73.5251106 156.55993 73.5251106 152.316524L73.5251106 137.650292 79.0843502 137.650292 96.407746 137.650292 102.711848 137.650292 102.711848 152.316524C102.711848 156.55993 106.134714 160 110.354952 160 114.577134 160 118 156.55993 118 152.316524L118 129.967794C118 125.724389 114.577134 122.285295 110.354952 122.285295L96.407746 122.285295 96.407746 90.8575152 110.354952 90.8575152C114.577134 90.8575152 118 87.4174447 118 83.1740396L118 65.0159402C118 60.7725351 114.577134 57.3334419 110.354952 57.3334419 106.134714 57.3334419 102.711848 60.7725351 102.711848 65.0159402L102.711848 75.4925185 96.407746 75.4925185 96.407746 47.1568925C96.407746 36.5767212 87.8739194 28 77.3476348 28 66.8203778 28 58.2865512 36.5767212 58.2865512 47.1568925M43 90L43 86M43 108L43 96M110 58L110 64" stroke-linecap="round" stroke-linejoin="round"/>
      <path stroke="#1E2126" stroke-width="2" d="M110,70 L110,80.1811455 C110,81.185201 109.232744,82 108.285178,82 L104,82" stroke-linecap="round" stroke-linejoin="round"/>
      <path fill="#1E2126" d="M70 56C70 57.6568566 68.6570668 59 67.0004696 59 65.3438723 59 64 57.6568566 64 56 64 54.3431434 65.3438723 53 67.0004696 53 68.6570668 53 70 54.3431434 70 56M91 56C91 57.6568566 89.6568566 59 88 59 86.3431434 59 85 57.6568566 85 56 85 54.3431434 86.3431434 53 88 53 89.6568566 53 91 54.3431434 91 56M77.5004515 78L77.5004515 78C76.1197399 78 75 76.8065021 75 75.3326911L75 64.6663456C75 63.1934979 76.1197399 62 77.5004515 62 78.8811631 62 80 63.1934979 80 64.6663456L80 75.3326911C80 76.8065021 78.8811631 78 77.5004515 78"/>
      <path stroke="#1E2126" stroke-width="2" d="M82 82C79.5205656 84.6650907 75.4794344 84.6682422 73 82M77 22L77 27M82 28L84 23M72 28L70 23M36 151L48 151M54 151L56 151M110 159L110 157M110 152L110 140" stroke-linecap="round" stroke-linejoin="round"/>
      <path stroke="#D5DBED" stroke-width="2" d="M10.5886587 88C7.89304665 88 5.707101 90.2086826 5.707101 92.9335407L5.707101 100.232478 1.95727403 100.232478C.876897522 100.232478.94920641e-17 101.118889.94920641e-17 102.211967L.94920641e-17 106.888889C.94920641e-17 107.980987.876897522 108.867398 1.95727403 108.867398 3.03861948 108.867398 3.91454806 107.980987 3.91454806 106.888889L3.91454806 104.189497 5.707101 104.189497 5.707101 111.705874C5.69934942 111.778354 5.69450468 111.851813 5.69450468 111.926252L5.69450468 118.042002 1.95727403 118.042002C.876897522 118.042002.94920641e-17 118.928413.94920641e-17 120.020511.94920641e-17 121.114568.876897522 122 1.95727403 122L7.65274766 122C8.73312416 122 9.61002169 121.114568 9.61002169 120.020511L9.61002169 116.243713 11.0334056 116.243713 15.4702164 116.243713 17.084483 116.243713 17.084483 120.020511C17.084483 121.114568 17.9604116 122 19.041757 122 20.1231025 122 21 121.114568 21 120.020511L21 114.264224C21 113.171146 20.1231025 112.285714 19.041757 112.285714L15.4702164 112.285714 15.4702164 104.189497 19.041757 104.189497C20.1231025 104.189497 21 103.304065 21 102.211967L21 97.534065C21 96.4409875 20.1231025 95.5555556 19.041757 95.5555556 17.9604116 95.5555556 17.084483 96.4409875 17.084483 97.534065L17.084483 100.232478 15.4702164 100.232478 15.4702164 92.9335407C15.4702164 91.6220436 14.9634568 90.4290612 14.1369446 89.5455881M109.694505 40.0421156L105.958243 40.0421156C104.875929 40.0421156 104 40.927522 104 42.0205681 104 43.1136141 104.875929 44 105.958243 44L111.652748 44C112.734093 44 113.610022 43.1136141 113.610022 42.0205681L113.610022 38.2428991 115.034375 38.2428991 119.470216 38.2428991 121.084483 38.2428991 121.084483 42.0205681C121.084483 43.1136141 121.961381 44 123.041757 44 124.124071 44 125 43.1136141 125 42.0205681L125 36.2644466C125 35.1714006 124.124071 34.2859941 123.041757 34.2859941L119.470216 34.2859941 119.470216 26.1900098 123.041757 26.1900098C124.124071 26.1900098 125 25.3046033 125 24.2115573L125 19.5347698C125 18.4417238 124.124071 17.5563173 123.041757 17.5563173 121.961381 17.5563173 121.084483 18.4417238 121.084483 19.5347698L121.084483 22.2331048 119.470216 22.2331048 119.470216 14.9343781C119.470216 13.6219393 118.963457 12.4299706 118.137914 11.546523 117.247451 10.5945152 115.98685 10 114.589628 10 111.893047 10 109.70807 12.2095984 109.70807 14.9343781L109.70807 22.2331048 105.958243 22.2331048C104.875929 22.2331048 104 23.1185113 104 24.2115573L104 28.8883448C104 29.9813908 104.875929 30.8677767 105.958243 30.8677767 107.038619 30.8677767 107.915517 29.9813908 107.915517 28.8883448L107.915517 26.1900098 109.70807 26.1900098 109.70807 36.6444662" stroke-linecap="round" stroke-linejoin="round"/>
      <path stroke="#7289DA" stroke-width="2" d="M77 115L77 129M77 105L77 109M77 36L77 43M86 94L86 110M86 44L86 47M68 94L68 116M68 42L68 49" stroke-linecap="round" stroke-linejoin="round"/>
    </g>
    <rect width="152" height="167"/>
  </g>
</svg>
