<svg xmlns="http://www.w3.org/2000/svg" width="168" height="167" viewBox="0 0 168 167">
  <g fill="none" fill-rule="evenodd">
    <g transform="translate(2 7)">
      <path stroke="#D5DBED" stroke-width="2" d="M123 150C123 152.209489 121.209489 154 119 154 116.790511 154 115 152.209489 115 150 115 147.790511 116.790511 146 119 146 121.209489 146 123 147.790511 123 150zM4 61L4 69M8 65L0 65M139 134L139 142M143 138L135 138M36 0L34 2M26 10L24 12M36 12L34 10M26 2L24 0" stroke-linecap="round" stroke-linejoin="round"/>
      <path stroke="#1E2126" stroke-width="2" d="M59 56.784C58.311649 56.545 57.6444781 56.283 57 56M51.7499651 51.4992016C49.3923706 48.281053 48 44.3067485 48 40.0043491L48 30.4088579C48 19.6893857 56.6449382 11 67.3083036 11L101.690421 11C112.353787 11 121 19.6893857 121 30.4088579L121 40.0043491C121 50.7238213 112.353787 59.4119254 101.690421 59.4119254L91.1201355 59.4119254C90.3232201 59.4119254 89.6079089 59.9066308 89.3222944 60.6538154L84.9806994 72 80.6391043 60.6538154C80.3534898 59.9066308 79.6381786 59.4119254 78.8412632 59.4119254L67.3083036 59.4119254C65.8776811 59.4119254 64.4827604 59.2555677 63.1413924 58.9595134M130.394142 128.305089L128.981345 132 124.639674 120.652534C124.354055 119.905349 123.638731 119.413207 122.840527 119.413207L111.308641 119.413207C100.643814 119.413207 92 110.72254 92 100.004349L92 90.4088579C92 79.6893857 100.643814 71 111.308641 71L145.690084 71C156.353636 71 165 79.6893857 165 90.4088579L165 100.004349C165 110.72254 156.353636 119.413207 145.690084 119.413207L135.120889 119.413207C134.323959 119.413207 133.608636 119.905349 133.323016 120.652534L132.12571 123.779687" stroke-linecap="round" stroke-linejoin="round"/>
      <path fill="#869DEE" d="M132.949897,89.5989271 C132.561641,86.210914 129.783827,83.4408643 126.375099,83.0513063 C122.82716,82.6452523 119.709622,84.695825 118.501433,87.7082381 C117.293244,84.6996317 114.180815,82.649059 110.637985,83.0500374 C107.179447,83.4395954 104.374813,86.2819734 104.036366,89.72455 C103.80137,92.1329578 104.722199,94.3307251 106.308427,95.847083 L106.304595,95.8508898 L118.028885,107.601077 C118.578062,108.14925 119.475903,108.130217 119.999537,107.557934 L130.901339,95.6453249 L130.897507,95.6427871 C132.382839,94.1086643 133.219376,91.9515024 132.949897,89.5989271"/>
      <path stroke="#1E2126" stroke-width="2" d="M133,89.5989271 C132.611073,86.210914 129.828451,83.4408643 126.413823,83.0513063 C122.859744,82.6452523 119.736811,84.695825 118.526531,87.7082381 C117.31625,84.6996317 114.198435,82.649059 110.649473,83.0500374 C107.184949,83.4395954 104.375461,86.2819734 104.036429,89.72455 C103.801026,92.1329578 104.723449,94.3307251 106.312422,95.847083 L106.308584,95.8508898 L118.053165,107.601077 C118.603293,108.14925 119.502687,108.130217 120.027227,107.557934 L130.947897,95.6453249 L130.944059,95.6427871" stroke-linecap="round" stroke-linejoin="round"/>
      <path fill="#869DEE" d="M152.960512,71.2792554 C152.653344,68.5683243 150.450247,66.352759 147.745097,66.0410537 C144.931535,65.7164145 142.458698,67.3564243 141.499764,69.7659971 C140.543411,67.3590111 138.074446,65.7202947 135.264755,66.0397603 C132.522178,66.3514656 130.29585,68.6252332 130.02869,71.3788459 C129.84284,73.3059868 130.573334,75.0636945 131.830403,76.2768878 L131.827821,76.2794746 L141.126773,85.6810766 C141.561714,86.1195335 142.275429,86.1040129 142.68972,85.6461553 L151.336906,76.1165083 L151.333034,76.1139216 C152.510084,74.886501 153.173465,73.1598345 152.960512,71.2792554"/>
      <path stroke="#1E2126" stroke-width="2" d="M152.960512,71.2792554 C152.653344,68.5683243 150.450247,66.352759 147.745097,66.0410537 C144.931535,65.7164145 142.458698,67.3564243 141.499764,69.7659971 C140.543411,67.3590111 138.074446,65.7202947 135.264755,66.0397603 C132.522178,66.3514656 130.29585,68.6252332 130.02869,71.3788459 C129.84284,73.3059868 130.573334,75.0636945 131.830403,76.2768878 L131.827821,76.2794746 L141.126773,85.6810766 C141.561714,86.1195335 142.275429,86.1040129 142.68972,85.6461553 L151.336906,76.1165083 L151.333034,76.1139216 C152.510084,74.886501 153.173465,73.1598345 152.960512,71.2792554 Z" stroke-linecap="round" stroke-linejoin="round"/>
      <path stroke="#D5DBED" stroke-width="2" d="M18.3572597 53.3656297L17.7172067 55 15.7559199 49.9792448C15.62611 49.6478167 15.3022278 49.428973 14.9423586 49.428973L9.7293971 49.428973C4.90843589 49.428973 1 45.5833958 1 40.8384089L1 36.5905641C1 31.8468422 4.90843589 28 9.7293971 28L25.2706029 28C30.0915641 28 34 31.8468422 34 36.5905641L34 40.8384089C34 45.5833958 30.0915641 49.428973 25.2706029 49.428973L20.4933401 49.428973C20.1334709 49.428973 19.8095887 49.6478167 19.6797788 49.9792448L19.1386898 51.3631466 18.3572597 53.3656297zM145.149351 56.7275445L144.664874 58 143.177202 54.0929339C143.079545 53.8366488 142.834771 53.6662192 142.562094 53.6662192L138.612723 53.6662192C134.960126 53.6662192 132 50.6740908 132 46.984867L132 43.6813522C132 39.990847 134.960126 37 138.612723 37L150.387277 37C154.039874 37 157 39.990847 157 43.6813522L157 46.984867C157 50.6740908 154.039874 53.6662192 150.387277 53.6662192L146.766386 53.6662192C146.494978 53.6662192 146.248935 53.8366488 146.151278 54.0929339L145.742898 55.1693312 145.149351 56.7275445zM89.3572597 151.365706L88.7172067 153 86.7559199 147.978215C86.62611 147.648067 86.3022278 147.429234 85.9423586 147.429234L80.7293971 147.429234C75.9084359 147.429234 72 143.583837 72 138.839072L72 134.591427C72 129.846662 75.9084359 126 80.7293971 126L96.2706029 126C101.091564 126 105 129.846662 105 134.591427L105 138.839072C105 143.583837 101.091564 147.429234 96.2706029 147.429234L91.4933401 147.429234C91.1334709 147.429234 90.8095887 147.648067 90.6797788 147.978215L90.1386898 149.362052 89.3572597 151.365706z" stroke-linecap="round" stroke-linejoin="round"/>
      <path fill="#CBDAF8" d="M63,26 C63,37.5983636 72.4029091,47 84,47 C95.5970909,47 105,37.5983636 105,26 C105,14.4016364 95.5970909,5 84,5 C72.4029091,5 63,14.4016364 63,26"/>
      <path stroke="#1E2126" stroke-width="2" d="M103.349273,17.8265455 C100.161091,10.2894545 92.6990909,5 84,5 C72.4029091,5 63,14.4029091 63,26 C63,37.5983636 72.4029091,47 84,47 C95.5970909,47 105,37.5983636 105,26" stroke-linecap="round" stroke-linejoin="round"/>
      <path fill="#1E2126" d="M82,42 L82,42 C89.7315615,42 96,35.5677273 96,27.6340909 L96,27 L68,27 L68,27.6340909 C68,35.5677273 74.2684385,42 82,42"/>
      <path fill="#869DEE" d="M94,35.3974418 C94,35.3974418 84.1089012,30.1002935 78,40.1325342 C78,40.1325342 82.3260515,43.6444053 87.5428758,41.0362574 C92.7597,38.4281096 94,35.3974418 94,35.3974418"/>
      <path stroke="#1E2126" stroke-width="2" d="M82.0006267,42 L82.0006267,42 C89.7322412,42 96,35.5686728 96,27.6352881 L96,27 L68,27 L68,27.6352881 C68,35.5686728 74.2677588,42 82.0006267,42 Z" stroke-linecap="round" stroke-linejoin="round"/>
      <path fill="#FFFFFF" d="M90.0006445,15 L90.0006445,15 C86.6864325,15 84,17.5070677 84,20.6 L84,23 L96,23 L96,20.6 C96,17.5070677 93.3135675,15 90.0006445,15"/>
      <path stroke="#1E2126" stroke-width="2" d="M90.0006445,15 L90.0006445,15 C86.6864325,15 84,17.5070677 84,20.6 L84,23 L96,23 L96,20.6 C96,17.5070677 93.3135675,15 90.0006445,15 Z" stroke-linecap="round" stroke-linejoin="round"/>
      <path fill="#1E2126" d="M90,17.5 C90,18.88 91.12,20 92.5,20 C93.88,20 95,18.88 95,17.5 C95,16.12 93.88,15 92.5,15 C91.12,15 90,16.12 90,17.5"/>
      <path fill="#FFFFFF" d="M74,15 L74,15 C70.6861439,15 68,17.5070677 68,20.6 L68,23 L80,23 L80,20.6 C80,17.5070677 77.3138561,15 74,15"/>
      <path stroke="#1E2126" stroke-width="2" d="M74,15 L74,15 C70.6861439,15 68,17.5070677 68,20.6 L68,23 L80,23 L80,20.6 C80,17.5070677 77.3138561,15 74,15 Z" stroke-linecap="round" stroke-linejoin="round"/>
      <path fill="#1E2126" d="M73,17.5 C73,18.88 74.12,20 75.5,20 C76.88,20 78,18.88 78,17.5 C78,16.12 76.88,15 75.5,15 C74.12,15 73,16.12 73,17.5"/>
      <path stroke="#1E2126" stroke-width="2" d="M94 35.3672408C94 35.3672408 84.1089012 30.1845726 78 40M10.6562855 113.727939C7.16254738 110.215018 5 105.364085 5 100.004349L5 90.4088579C5 79.6893857 13.6463643 71 24.309916 71L58.6913591 71C69.3561859 71 78 79.6893857 78 90.4088579L78 100.004349C78 110.72254 69.3561859 119.413207 58.6913591 119.413207L48.1221638 119.413207C47.3252345 119.413207 46.6099107 119.905349 46.3242913 120.652534L41.9813453 132 37.6409495 120.652534C37.354055 119.905349 36.6400063 119.413207 35.843077 119.413207L24.309916 119.413207C21.2739341 119.413207 18.4011633 118.708316 15.8458892 117.45361" stroke-linecap="round" stroke-linejoin="round"/>
      <path fill="#FFFFFF" d="M29.0006346 103L29.0006346 103C22.3721115 103 17 97.564058 17 90.8567759L17 81.1419399C17 74.4372262 22.3721115 69 29.0006346 69 35.6278885 69 41 74.4372262 41 81.1419399L41 90.8567759C41 97.564058 35.6278885 103 29.0006346 103M52.9993654 103L52.9993654 103C46.3721115 103 41 97.564058 41 90.8567759L41 81.1419399C41 74.4372262 46.3721115 69 52.9993654 69 59.6278885 69 65 74.4372262 65 81.1419399L65 90.8567759C65 97.564058 59.6278885 103 52.9993654 103"/>
      <path fill="#7289DA" d="M33 94C33 90.1343468 29.8656532 87 26 87 22.1331094 87 19 90.1343468 19 94 19 97.8668906 22.1331094 101 26 101 29.8656532 101 33 97.8668906 33 94M57 94C57 90.1343468 53.8668906 87 50 87 46.1343468 87 43 90.1343468 43 94 43 97.8668906 46.1343468 101 50 101 53.8668906 101 57 97.8668906 57 94"/>
      <path stroke="#1E2126" stroke-width="2" d="M29.0006346 103L29.0006346 103C22.3721115 103 17 97.564058 17 90.8567759L17 81.1419399C17 74.4372262 22.3721115 69 29.0006346 69 35.6278885 69 41 74.4372262 41 81.1419399L41 90.8567759C41 97.564058 35.6278885 103 29.0006346 103zM65 90.8567759C65 97.564058 59.6278885 103 52.9993654 103 46.3721115 103 41 97.564058 41 90.8567759L41 81.1432241C41 74.4372262 46.3721115 69 52.9993654 69 59.6278885 69 65 74.4372262 65 81.1432241L65 84.9829279" stroke-linecap="round" stroke-linejoin="round"/>
    </g>
    <rect width="168" height="167"/>
  </g>
</svg>
