<svg xmlns="http://www.w3.org/2000/svg" width="152" height="167" viewBox="0 0 152 167">
  <g fill="none" fill-rule="evenodd" transform="translate(1 4)">
    <g transform="translate(22 92)">
      <path fill="#CBDAF8" d="M3.11606517,12.1907908 L1.01359032,9.09109268 C-0.757354185,6.48108022 -0.147958468,2.88059518 2.37548838,1.04889929 C4.90012778,-0.784030056 8.38238903,-0.152495852 10.152141,2.4575166 L12.2558084,5.55598129"/>
      <path fill="#FFFFFF" d="M21.7240412,28.277438 L21.7240412,28.277438 C18.1153294,30.7143553 13.1361097,29.8739142 10.6032404,26.4036283 L1.63161677,14.1093143 L14.6997176,5.29010944 L23.6725951,17.5844234 C26.2054643,21.0547094 25.332753,25.8417265 21.7240412,28.277438"/>
      <g fill="#869DEE" transform="rotate(146 7.425 7.429)">
        <path d="M2.33934443,0.218092732 L0.0598239853,4.12293756 C-0.110153571,4.41410308 0.102318374,4.77768477 0.442273487,4.77768477 L5.00131437,4.77768477 C5.34126948,4.77768477 5.55374143,4.41410308 5.38376387,4.12293756 L3.10424343,0.218092732 C2.93426587,-0.0726975772 2.50932198,-0.0726975772 2.33934443,0.218092732"/>
        <path d="M7.55644154,0.218092732 L5.2769211,4.12293756 C5.10694354,4.41410308 5.31941549,4.77768477 5.6593706,4.77768477 L10.2184115,4.77768477 C10.5583666,4.77768477 10.7708385,4.41410308 10.600861,4.12293756 L8.32134055,0.218092732 C8.15136299,-0.0726975772 7.7264191,-0.0726975772 7.55644154,0.218092732"/>
        <path d="M12.7735387,0.218092732 L10.4940182,4.12293756 C10.3240407,4.41410308 10.5365126,4.77768477 10.8764677,4.77768477 L15.4355086,4.77768477 C15.7754637,4.77768477 15.9879357,4.41410308 15.8179581,4.12293756 L13.5384377,0.218092732 C13.3684601,-0.0726975772 12.9435162,-0.0726975772 12.7735387,0.218092732"/>
      </g>
      <path stroke="#1E2126" stroke-width="2" d="M21.7240412 28.277438L21.7240412 28.277438C18.1153294 30.7143553 13.1361097 29.8739142 10.6032404 26.4036283L1.63161677 14.1093143 14.6997176 5.29010944 23.6725951 17.5844234C26.2054643 21.0547094 25.332753 25.8417265 21.7240412 28.277438zM3.11606517 12.1907908L1.01359032 9.09109268C-.757354185 6.48108022-.147958468 2.88059518 2.37548838 1.04889929 4.90012778-.784030056 8.38238903-.152495852 10.152141 2.4575166L12.2558084 5.55598129" stroke-linecap="round" stroke-linejoin="round"/>
    </g>
    <g transform="translate(29)">
      <path fill="#AABFF2" d="M69.825808,104.990476 L28.2891345,104.990476 C21.0747034,104.990476 15.1724138,99.1004046 15.1724138,91.9009077 L15.1724138,66.5943304 C15.1724138,59.3948335 21.0747034,53.5047619 28.2891345,53.5047619 L69.825808,53.5047619 C77.0390655,53.5047619 82.9425287,59.3948335 82.9425287,66.5943304 L82.9425287,91.9009077 C82.9425287,99.1004046 77.0390655,104.990476 69.825808,104.990476"/>
      <path fill="#CBDAF8" d="M60.7223597,104.990476 L19.1856862,104.990476 C11.9712551,104.990476 6.06896552,99.1004046 6.06896552,91.9009077 L6.06896552,66.5943304 C6.06896552,59.3948335 11.9712551,53.5047619 19.1856862,53.5047619 L60.7223597,53.5047619 C67.9367909,53.5047619 73.8390805,59.3948335 73.8390805,66.5943304 L73.8390805,91.9009077 C73.8390805,99.1004046 67.9367909,104.990476 60.7223597,104.990476"/>
      <path stroke="#1E2126" stroke-width="2" d="M27.3103448,53.5047619 L68.8221628,53.5047619 C76.0322768,53.5047619 81.9310345,59.3948335 81.9310345,66.5943304 L81.9310345,91.9009077 C81.9310345,99.1004046 76.0322768,104.990476 68.8221628,104.990476 L32.7903599,104.990476" stroke-linecap="round" stroke-linejoin="round"/>
      <path stroke="#1E2126" stroke-width="2" d="M60.6896552 53.5047619L19.1778372 53.5047619C11.9677232 53.5047619 6.06896552 59.3948335 6.06896552 66.5943304L6.06896552 91.9009077C6.06896552 99.1004046 11.9677232 104.990476 19.1778372 104.990476M74.8505747 92.8761905C74.8505747 100.093346 68.4784143 106 60.6896552 106" stroke-linecap="round" stroke-linejoin="round"/>
      <path fill="#CBDAF8" d="M79.6116968,82.7809524 L70.8045977,82.7809524 L70.8045977,60.5714286 L79.6116968,60.5714286 C84.2443458,60.5714286 88,64.2544316 88,68.7974644 L88,74.5549166 C88,79.0979494 84.2443458,82.7809524 79.6116968,82.7809524"/>
      <path stroke="#1E2126" stroke-width="2" d="M70.8045977,60.5714286 L79.6116968,60.5714286 C84.2443458,60.5714286 88,64.2544316 88,68.7974644 L88,74.5549166 C88,79.0979494 84.2443458,82.7809524 79.6116968,82.7809524 L70.8045977,82.7809524" stroke-linecap="round" stroke-linejoin="round"/>
      <path fill="#869DEE" d="M70.8045977,77.9115502 L70.8045977,65.4408307 C70.8045977,64.9811013 71.2129089,64.6095238 71.7180868,64.6095238 L80.3968458,64.6095238 C82.9202827,64.6095238 84.9655172,66.4707586 84.9655172,68.7671742 L84.9655172,74.5863226 C84.9655172,76.8816223 82.9202827,78.7428571 80.3968458,78.7428571 L71.7180868,78.7428571 C71.2129089,78.7428571 70.8045977,78.3701638 70.8045977,77.9115502"/>
      <path fill="#AABFF2" d="M5.2779259,65.6190476 L10.5546713,65.6190476 L29.0256412,65.6190476 L35.1830247,65.6190476 C38.0846444,65.6190476 40.4597701,67.8583691 40.4597701,70.5951938 L40.4597701,76.3993992 C40.4597701,83.2409046 34.5219559,88.8380952 27.2655456,88.8380952 L21.1093426,88.8380952 L18.4709699,88.8380952 L13.1942245,88.8380952 C5.93781419,88.8380952 0,83.2409046 0,76.3993992 L0,70.5951938 C0,67.8583691 2.37512568,65.6190476 5.2779259,65.6190476"/>
      <path fill="#CBDAF8" d="M21.1637541,88.8380952 L13.2270505,88.8380952 C5.951936,88.8380952 0,83.2409046 0,76.3993992 L0,70.5940808 C0,67.8572561 2.38124781,65.6190476 5.2915303,65.6190476 L29.1004578,65.6190476 C32.0107403,65.6190476 34.3908046,67.8572561 34.3908046,70.5940808 L34.3908046,76.3993992 C34.3908046,83.2409046 28.4388686,88.8380952 21.1637541,88.8380952"/>
      <path stroke="#1E2126" stroke-width="2" d="M25.9099301,65.6190476 L29.0253076,65.6190476 L35.1828707,65.6190476 C38.0845751,65.6190476 40.4597701,67.8583691 40.4597701,70.5951938 L40.4597701,76.3993992 C40.4597701,83.2409046 34.5229632,88.8380952 27.2663412,88.8380952 L21.1099585,88.8380952 L18.4703283,88.8380952 L13.193429,88.8380952 C5.93680693,88.8380952 0,83.2409046 0,76.3993992 L0,70.5951938 C0,67.8583691 2.37401446,65.6190476 5.27689938,65.6190476 L21.1819699,65.6190476" stroke-linecap="round" stroke-linejoin="round"/>
      <path fill="#AABFF2" d="M17.38209 78.7714286L19.5814525 78.7714286 20.9001256 78.7714286 23.0994881 78.7714286C24.3095506 78.7714286 25.2988506 79.9069735 25.2988506 81.2945606 25.2988506 82.6835027 24.3095506 83.8190476 23.0994881 83.8190476L20.9001256 83.8190476 19.5814525 83.8190476 17.38209 83.8190476C16.173208 83.8190476 15.183908 82.6835027 15.183908 81.2945606 15.183908 79.9069735 16.173208 78.7714286 17.38209 78.7714286M8.44103539 78.7714286L9.85763418 78.7714286 9.38501222 78.7714286 10.801611 78.7714286C12.099104 78.7714286 13.1609195 79.9069735 13.1609195 81.2945606 13.1609195 82.6835027 12.099104 83.8190476 10.801611 83.8190476L9.38501222 83.8190476 9.85763418 83.8190476 8.44103539 83.8190476C7.1435424 83.8190476 6.08045977 82.6835027 6.08045977 81.2945606 6.08045977 79.9069735 7.1435424 78.7714286 8.44103539 78.7714286"/>
      <path stroke="#1E2126" stroke-width="2" d="M49.5632184,75.7142857 L49.5632184,75.4380423 C49.5632184,73.924318 50.8635426,72.6857143 52.4538756,72.6857143 L52.7427056,72.6857143 C54.3318597,72.6857143 55.6321839,73.924318 55.6321839,75.4380423 L55.6321839,75.7142857" stroke-linecap="round" stroke-linejoin="round"/>
      <polygon fill="#FFFFFF" points="64.723 43.733 61.003 0 23.277 43.733 2.023 56.533 85.977 56.533"/>
      <polyline stroke="#1E2126" stroke-width="2" points="61.535 43.41 64.723 43.41 85.977 56.533 2.023 56.533 23.277 43.41 48.241 43.41" stroke-linecap="round" stroke-linejoin="round"/>
      <polyline stroke="#1E2126" stroke-width="2" points="65.747 43.41 61.934 0 23.264 43.41" stroke-linecap="round" stroke-linejoin="round"/>
      <path stroke="#D5DBED" stroke-width="2" d="M7.08045977 19.1809524L7.08045977 27.2571429M11.1264368 22.2095238L3.03448276 22.2095238" stroke-linecap="round" stroke-linejoin="round"/>
    </g>
    <polygon fill="#CBDAF8" points="49 100 52 107 57 99"/>
    <polyline fill="#FFFFFF" points="113.625 97.196 107.371 110.929 122 159 22 159 36.629 110.929 31.659 97 45.131 97 50.008 104.154 56.103 97"/>
    <path fill="#869DEE" d="M30.305633,144.684723 L23.1868267,156.944358 C22.655997,157.8585 23.3195342,159 24.3811937,159 L38.6188063,159 C39.6804658,159 40.344003,157.8585 39.8131733,156.944358 L32.694367,144.684723 C32.1635372,143.771759 30.8364628,143.771759 30.305633,144.684723"/>
    <path fill="#869DEE" d="M46.305633,144.684723 L39.1868267,156.944358 C38.655997,157.8585 39.3195342,159 40.3811937,159 L54.6188063,159 C55.6804658,159 56.344003,157.8585 55.8131733,156.944358 L48.694367,144.684723 C48.1635372,143.771759 46.8364628,143.771759 46.305633,144.684723"/>
    <path fill="#869DEE" d="M62.305633,144.684723 L55.1868267,156.944358 C54.655997,157.8585 55.3195342,159 56.3811937,159 L70.6188063,159 C71.6804658,159 72.344003,157.8585 71.8131733,156.944358 L64.694367,144.684723 C64.1635372,143.771759 62.8364628,143.771759 62.305633,144.684723"/>
    <path fill="#869DEE" d="M79.3058549,144.684723 L72.1868324,156.944358 C71.6559865,157.8585 72.3195439,159 73.3812357,159 L87.6192807,159 C88.6809725,159 89.3445298,157.8585 88.812499,156.944358 L81.6946614,144.684723 C81.1626306,143.771759 79.8367008,143.771759 79.3058549,144.684723"/>
    <path fill="#869DEE" d="M96.3058549,144.684723 L89.1868324,156.944358 C88.6559865,157.8585 89.3195439,159 90.3812357,159 L104.619281,159 C105.680972,159 106.34453,157.8585 105.812499,156.944358 L98.6946614,144.684723 C98.1626306,143.771759 96.8367008,143.771759 96.3058549,144.684723"/>
    <path fill="#869DEE" d="M112.306067,144.684723 L105.186838,156.944358 C104.655977,157.8585 105.319553,159 106.381276,159 L120.619735,159 C121.681457,159 122.343849,157.8585 121.812988,156.944358 L114.693758,144.684723 C114.162897,143.771759 112.836929,143.771759 112.306067,144.684723"/>
    <polyline stroke="#1E2126" stroke-width="2" points="65.768 97 113.625 97 107.37 110.929 122 159 22 159 36.63 110.929 31.658 97 45.13 97 50.007 104.154 56.103 97 59.765 97" stroke-linecap="round" stroke-linejoin="round"/>
    <g transform="translate(72 92)">
      <path fill="#CBDAF8" d="M3.11645325,13.2252736 L1.01406766,10.1255754 C-0.757994148,7.51556298 -0.147431801,3.91507794 2.3759079,2.08338205 C4.90044011,0.250452703 8.38136099,0.881986907 10.1522303,3.49199936 L12.2558084,6.59046405"/>
      <g fill="#869DEE" transform="rotate(146 7.425 7.429)">
        <path d="M2.33934443,0.218092732 L0.0598239853,4.12293756 C-0.110153571,4.41410308 0.102318374,4.77768477 0.442273487,4.77768477 L5.00131437,4.77768477 C5.34126948,4.77768477 5.55374143,4.41410308 5.38376387,4.12293756 L3.10424343,0.218092732 C2.93426587,-0.0726975772 2.50932198,-0.0726975772 2.33934443,0.218092732"/>
        <path d="M7.55644154,0.218092732 L5.2769211,4.12293756 C5.10694354,4.41410308 5.31941549,4.77768477 5.6593706,4.77768477 L10.2184115,4.77768477 C10.5583666,4.77768477 10.7708385,4.41410308 10.600861,4.12293756 L8.32134055,0.218092732 C8.15136299,-0.0726975772 7.7264191,-0.0726975772 7.55644154,0.218092732"/>
        <path d="M12.7735387,0.218092732 L10.4940182,4.12293756 C10.3240407,4.41410308 10.5365126,4.77768477 10.8764677,4.77768477 L15.4355086,4.77768477 C15.7754637,4.77768477 15.9879357,4.41410308 15.8179581,4.12293756 L13.5384377,0.218092732 C13.3684601,-0.0726975772 12.9435162,-0.0726975772 12.7735387,0.218092732"/>
      </g>
      <path stroke="#1E2126" stroke-width="2" d="M14.8091153 29.6716911C13.2054112 29.1722341 11.750918 28.1745442 10.7102031 26.7263637L1.73748503 14.2436109 14.8066075 5.29010944 23.7780718 17.7716381C26.310896 21.2947687 25.439454 26.1559055 21.8308064 28.6274832M3.11645325 12.1907908L1.01406766 9.09109268C-.757994148 6.48108022-.147431801 2.88059518 2.3759079 1.04889929 4.90044011-.784030056 8.38136099-.152495852 10.1522303 2.4575166L12.2558084 5.55598129" stroke-linecap="round" stroke-linejoin="round"/>
    </g>
    <path stroke="#1E2126" stroke-width="2" d="M107 111L102 111M46 111L54 111" stroke-linecap="round" stroke-linejoin="round"/>
    <path stroke="#D5DBED" stroke-width="2" d="M150 91C150 93.2094886 148.208256 95 146 95 143.790511 95 142 93.2094886 142 91 142 88.7905114 143.790511 87 146 87 148.208256 87 150 88.7905114 150 91zM8 123C8 125.209489 6.20825632 127 4 127 1.7905114 127 0 125.209489 0 123 0 120.790511 1.7905114 119 4 119 6.20825632 119 8 120.790511 8 123zM141 108L139 110M131 118L129 120M141 120L139 118M131 110L129 108" stroke-linecap="round" stroke-linejoin="round"/>
  </g>
</svg>
