<svg xmlns="http://www.w3.org/2000/svg" width="1200" height="505" viewBox="0 0 1200 504" xmlns:xlink="http://www.w3.org/1999/xlink">
  <defs>
    <path id="a" d="M716.687859 11.5186403c-58.990222 19.6318666-114.34182 67.7696202-176.259251 73.3831852-32.310177 2.9291213-64.653805-2.0740243-96.953787-7.0774884-35.581464-5.5112975-71.11036-11.0229135-106.483147-5.9308812-83.513727 12.0210576-148.127071 80.8474421-188.317265 155.0353871-14.151154 26.122193-26.297736 53.545828-44.069671 77.353461-20.9173796 28.022266-54.1731327 50.202538-74.0270568 78.988148C6.43967023 418.266983-3.89859222 462.389541 1.5091633 504.507208H1195.08594c1.94754-7.180075 3.39458-14.472612 4.09898-21.907559 2.22121-23.443484-4.14231-48.975647-22.03021-64.290612-16.57754-14.19257-40.82005-18.079693-55.20473-34.489972-22.94362-26.174761-15.2933-65.679985-43.58128-102.050279-30.88989-39.715813-81.919176-49.560898-120.76683-81.536236-46.093677-37.939033-30.448652-112.9632783-69.166002-158.4057561C863.097726 12.0879616 825.065983.0038231 785.669078.00191154c-23.295339-.00127436-47.061554 4.22164302-68.981219 11.51672876z"/>
    <path id="c" d="M0 630.172h1310.706V.3H0z"/>
  </defs>
  <g fill="none" fill-rule="evenodd">
    <g transform="translate(.046 .57)">
      <mask id="b" fill="#fff">
        <use xlink:href="#a"/>
      </mask>
      <path fill="#EFF1FB" mask="url(#b)" d="M-46.737 504.704h1281.392V-74.25H-46.737"/>
      <path fill="#E3E7F9" mask="url(#b)" d="M1090.571 405.81V150.842h-7.009V137.32h-52.779v13.522h-52.769v56.823H941.72v-9.978h-73.004V141.74h-17.259v-9.977h-92.725V91.164h-6.861V80.262H637.119v10.902h-6.861v76.805h-75.039v8.606h-4.592v-28.137h-3.912v-8.605h-65.438v8.605h-3.912V185.6h-62.414v-11.608h-61.282v-43.141h-14.123V98.147h-7.079v32.704h-14.228v9.978H286.44v-9.978h-14.175V98.147h-7.079v32.704H251.01v51.386h-12.282v-9.978H140.49v9.978H95.48v9.863H12.81v213.71"/>
      <path fill="#EFF1FB" mask="url(#b)" d="M-46.736 504.508h1281.392V361.485H-46.736"/>
      <path fill="#E3E7F9" d="M979.22429 423.187773l-7.448009-6.364164c-2.368402-2.024005-5.847411-2.059369-8.257229-.083789l-3.37706 2.768551c-2.371588 1.944358-5.785604 1.944358-8.156873 0l-3.462442-2.838641c-2.371588-1.944358-5.785604-1.944358-8.157191 0l-3.462124 2.838641c-2.371269 1.944358-5.785604 1.944358-8.156873 0l-3.462442-2.838641c-2.371269-1.944358-5.785604-1.944358-8.156873 0l-3.462442 2.838641c-2.371587 1.944358-5.785285 1.944358-8.156873 0l-3.462442-2.838641c-2.371269-1.944358-5.785285-1.944358-8.156873 0l-3.46276 2.838641c-2.371269 1.944358-5.785285 1.944358-8.156555 0l-3.462441-2.838641c-2.371588-1.944358-5.785923-1.944358-8.157192 0l-3.462123 2.838641c-2.37127 1.944358-5.785604 1.944358-8.157192 0l-3.462123-2.838641c-2.37127-1.944358-5.785604-1.944358-8.156873 0l-3.462442 2.838641c-2.371588 1.944358-5.785604 1.944358-8.156873 0l-3.462442-2.838641c-2.371588-1.944358-5.785285-1.944358-8.156873 0l-3.462761 2.838641c-2.371269 1.944358-5.785285 1.944358-8.156554 0l-3.462761-2.838641c-2.371269-1.944358-5.785285-1.944358-8.156554 0l-3.462442 2.838641c-1.162537.953223-2.575486 1.435888-3.993532 1.455003-1.417728-.019115-2.830677-.502098-3.992895-1.455003l-3.462442-2.838641c-1.209051-.991135-2.688904-1.474118-4.16366-1.454366-1.474755-.019752-2.954927.463231-4.163659 1.454366l-3.46276 2.838641c-1.162219.952905-2.575168 1.435888-3.993214 1.455003-1.417409-.019115-2.830677-.502098-3.992895-1.455003l-3.462442-2.838641c-1.209051-.991135-2.689223-1.474118-4.163659-1.454366-1.474756-.019752-2.954609.463231-4.16366 1.454366l-3.46276 2.838641c-1.162219.953223-2.575486 1.435888-3.992895 1.455003-1.418047-.019115-2.830996-.502098-3.992895-1.455003l-3.463079-2.838641c-1.208733-.991135-2.688586-1.474118-4.163341-1.454366-1.474756-.019752-2.954609.463231-4.16366 1.454366l-3.462442 2.838641c-1.162536.952905-2.575485 1.435888-3.993213 1.455003-1.418047-.019115-2.830677-.502098-3.993214-1.455003l-3.462442-2.838641c-1.209051-.991135-2.688904-1.474118-4.163659-1.454366-1.474756-.019752-2.954927.463231-4.163978 1.454366l-3.462442 2.838641c-1.162218.952905-2.575167 1.435888-3.993214 1.455003-1.417409-.019115-2.830677-.502098-3.992895-1.455003l-3.462442-2.838641c-1.209051-.991135-2.689222-1.474118-4.163978-1.454366-1.474755-.019752-2.95429.463231-4.163341 1.454366l-3.46276 2.838641c-1.162537.952905-2.575167 1.435888-3.992895 1.455003-1.418046-.019115-2.830677-.502098-3.993214-1.455003l-3.46276-2.838641c-1.209051-.991135-2.688585-1.474118-4.163341-1.454366-1.474756-.019752-2.954609.463231-4.16366 1.454366l-3.46276 2.838641c-1.162218.953223-2.575486 1.435888-3.993532 1.455003-1.417409-.019115-2.830677-.502098-3.992577-1.455003l-3.462441-2.838641c-1.209051-.991135-2.689223-1.474118-4.16366-1.454366-1.474755-.019752-2.954927.463231-4.163978 1.454366l-3.462442 2.838641c-1.161899.952905-2.575167 1.435888-3.992576 1.455003-1.418047-.019115-2.831314-.50178-3.993532-1.455003l-3.462761-2.838641c-1.208732-.991135-2.688904-1.474118-4.163659-1.454366-1.474756-.019752-2.95429.463231-4.163341 1.454366l-3.462761 2.838641c-1.162537.953223-2.575486 1.435888-3.993213 1.455003-1.418047-.019115-2.830359-.502098-3.992895-1.455003l-3.462761-2.838641c-1.209051-.991135-2.688585-1.474118-4.163341-1.454366-1.474755-.019752-2.954927.463231-4.163978 1.454366l-3.462442 2.838641c-1.162218.952905-2.575167 1.435888-3.992895 1.455003-1.417727-.019115-2.830995-.50178-3.993213-1.455003l-3.462442-2.838641c-2.371588-1.944358-5.785604-1.944358-8.157192 0l-3.462123 2.838641c-2.371269 1.944358-5.785604 1.944358-8.157192 0l-3.462442-2.838641c-2.371269-1.944358-5.785285-1.944358-8.156554 0l-3.462442 2.838641c-2.371588 1.944358-5.785604 1.944358-8.156873 0l-3.46276-2.838641c-2.37127-1.944358-5.785286-1.944358-8.156874 0l-3.462441 2.838641c-2.37127 1.944358-5.785286 1.944358-8.156555 0l-3.462442-2.838641c-2.371588-1.944358-5.785922-1.944358-8.157191 0l-3.462124 2.838641c-2.371588 1.944358-5.785604 1.944358-8.157191 0l-3.462124-2.838641c-2.371269-1.944358-5.785603-1.944358-8.156873 0l-3.46276 2.838641c-2.371269 1.944358-5.785285 1.944358-8.156555 0l-3.46276-2.838641c-2.371588-1.944358-5.785285-1.944358-8.156873 0l-3.462442 2.838641c-2.371269 1.944358-5.785285 1.944358-8.156555 0l-3.46276-2.838641c-2.371269-1.944358-5.785604-1.944358-8.156873 0l-3.462123 2.838641c-2.371588 1.944358-5.785923 1.944358-8.157192 0l-3.376741-2.768551c-2.409819-1.97558-5.888509-1.940216-8.257229.083789l-7.448328 6.364164c-1.430471 1.222114-2.254028 3.009088-2.254028 4.890684 0 3.552602 2.880058 6.432342 6.43298 6.432342h572.282244c3.552603 0 6.432343-2.87974 6.432343-6.432342 0-1.881596-.823238-3.66857-2.25371-4.890684m0-34.998284l-7.448009-6.364164c-2.368402-2.024005-5.847411-2.059369-8.257229-.083789l-3.37706 2.768551c-2.371588 1.944677-5.785604 1.944677-8.156873 0l-3.462442-2.838641c-2.371588-1.944358-5.785604-1.944358-8.157191 0l-3.462124 2.838641c-2.371269 1.944677-5.785604 1.944677-8.156873 0l-3.462442-2.838641c-2.371269-1.944358-5.785604-1.944358-8.156873 0l-3.462442 2.838641c-2.371587 1.944677-5.785285 1.944677-8.156873 0l-3.462442-2.838641c-2.371269-1.944358-5.785285-1.944358-8.156873 0l-3.46276 2.838641c-2.371269 1.944677-5.785285 1.944677-8.156555 0l-3.462441-2.838641c-2.371588-1.944358-5.785923-1.944358-8.157192 0l-3.462123 2.838641c-2.37127 1.944358-5.785604 1.944677-8.157192 0l-3.462123-2.838641c-2.37127-1.944358-5.785604-1.944358-8.156873 0l-3.462442 2.838641c-2.371588 1.944677-5.785604 1.944677-8.156873 0l-3.462442-2.838641c-2.371588-1.944358-5.785285-1.944358-8.156873 0l-3.462761 2.838641c-2.371269 1.944677-5.785285 1.944677-8.156554 0l-3.462761-2.838641c-2.371269-1.944358-5.785285-1.944358-8.156554 0l-3.462442 2.838641c-1.162537.952905-2.575486 1.435888-3.992895 1.455003-1.418365-.019115-2.830995-.502098-3.993532-1.455003l-3.462442-2.838641c-1.209051-.991135-2.688585-1.474118-4.163341-1.454366-1.474756-.019752-2.955246.463231-4.163978 1.454366l-3.46276 2.838641c-1.162219.952905-2.575168 1.435888-3.993214 1.455003-1.417409-.019115-2.830677-.502098-3.992895-1.455003l-3.462442-2.838641c-1.209051-.991135-2.689223-1.474118-4.163659-1.454366-1.474756-.019752-2.954609.463231-4.16366 1.454366l-3.46276 2.838641c-1.162219.952905-2.575168 1.435888-3.992895 1.455003-1.417728-.019115-2.830677-.502098-3.992895-1.455003l-3.463079-2.838641c-1.208414-.991135-2.688586-1.474118-4.163341-1.454366-1.474756-.019752-2.954609.463231-4.16366 1.454366l-3.462442 2.838641c-1.162536.953223-2.575485 1.436207-3.993532 1.455003-1.417728-.019115-2.830677-.502098-3.992895-1.455003l-3.462442-2.838641c-1.209051-.991135-2.688904-1.474118-4.163659-1.454366-1.474756-.019752-2.954927.463231-4.163978 1.454366l-3.462442 2.838641c-1.162218.952905-2.575167 1.435888-3.992895 1.455003-1.417728-.019115-2.830996-.50178-3.993214-1.455003l-3.462442-2.838641c-1.209051-.991135-2.689222-1.474118-4.163978-1.454366-1.474755-.019752-2.95429.463231-4.163341 1.454366l-3.46276 2.838641c-1.162537.952905-2.575167 1.435888-3.992895 1.455003-1.418046-.019115-2.830677-.502098-3.993214-1.455003l-3.46276-2.838641c-1.209051-.991135-2.688585-1.474118-4.163341-1.454366-1.474756-.019752-2.954609.463231-4.16366 1.454366l-3.46276 2.838641c-1.162218.952905-2.575486 1.435888-3.992895 1.455003-1.418046-.019115-2.830995-.502098-3.993214-1.455003l-3.462441-2.838641c-1.209051-.991135-2.689223-1.474118-4.16366-1.454366-1.474755-.019752-2.954927.463231-4.163978 1.454366l-3.462442 2.838641c-1.162218.952905-2.575167 1.435888-3.992895 1.455003-1.417728-.019115-2.830995-.502098-3.993213-1.455003l-3.462761-2.838641c-1.208732-.991135-2.688904-1.474118-4.163659-1.454366-1.474756-.019752-2.95429.463231-4.163341 1.454366l-3.462761 2.838641c-1.162537.952905-2.575167 1.435888-3.993213 1.455003-1.417728-.019115-2.830359-.502098-3.992895-1.455003l-3.462761-2.838641c-1.209051-.991135-2.688585-1.474118-4.163341-1.454366-1.474755-.019752-2.954927.463231-4.163978 1.454366l-3.462442 2.838641c-1.162218.952905-2.575485 1.435888-3.992895 1.455003-1.418046-.019115-2.830995-.502098-3.993213-1.455003l-3.462442-2.838641c-2.371588-1.944358-5.785604-1.944358-8.157192 0l-3.462123 2.838641c-2.371269 1.944677-5.785604 1.944677-8.157192 0l-3.462442-2.838641c-2.371269-1.944358-5.785285-1.944358-8.156554 0l-3.462442 2.838641c-2.371588 1.944677-5.785604 1.944677-8.156873 0l-3.46276-2.838641c-2.37127-1.944358-5.785286-1.944358-8.156874 0l-3.462441 2.838641c-2.37127 1.944677-5.785286 1.944677-8.156555 0l-3.462442-2.838641c-2.371588-1.944358-5.785922-1.944358-8.157191 0l-3.462124 2.838641c-2.371588 1.944677-5.785604 1.944677-8.157191 0l-3.462124-2.838641c-2.371269-1.944358-5.785603-1.944358-8.156873 0l-3.46276 2.838641c-2.371269 1.944677-5.785285 1.944677-8.156555 0l-3.46276-2.838641c-2.371588-1.944358-5.785285-1.944358-8.156873 0l-3.462442 2.838641c-2.371269 1.944677-5.785285 1.944677-8.156555 0l-3.46276-2.838641c-2.371269-1.944358-5.785604-1.944358-8.156873 0l-3.462123 2.838641c-2.371588 1.944677-5.785923 1.944677-8.157192 0l-3.376741-2.768551c-2.409819-1.97558-5.888509-1.940216-8.257229.083789l-7.448328 6.364164c-1.430471 1.222432-2.254028 3.009088-2.254028 4.890684 0 3.552602 2.880058 6.432661 6.43298 6.432661h572.282244c3.552603 0 6.432343-2.880059 6.432343-6.432661 0-1.881596-.823238-3.668252-2.25371-4.890684m0 69.996568l-7.448009-6.364164c-2.368402-2.024006-5.847411-2.059369-8.257229-.083789l-3.37706 2.768551c-2.371588 1.944358-5.785604 1.944358-8.156873 0l-3.462442-2.838641c-2.371588-1.944358-5.785604-1.944358-8.157191 0l-3.462124 2.838641c-2.371269 1.944358-5.785604 1.944358-8.156873 0l-3.462442-2.838641c-2.371269-1.944358-5.785604-1.944358-8.156873 0l-3.462442 2.838641c-2.371587 1.944358-5.785285 1.944358-8.156873 0l-3.462442-2.838641c-2.371269-1.944358-5.785285-1.944358-8.156873 0l-3.46276 2.838641c-2.371269 1.944358-5.785285 1.944358-8.156555 0l-3.462441-2.838641c-2.371588-1.944358-5.785923-1.944358-8.157192 0l-3.462123 2.838641c-2.37127 1.944358-5.785604 1.944358-8.157192 0l-3.462123-2.838641c-2.37127-1.944358-5.785604-1.944358-8.156873 0l-3.462442 2.838641c-2.371588 1.944358-5.785604 1.944358-8.156873 0l-3.462442-2.838641c-2.371588-1.944358-5.785285-1.944358-8.156873 0l-3.462761 2.838641c-2.371269 1.944358-5.785285 1.944358-8.156554 0l-3.462761-2.838641c-2.371269-1.944358-5.785285-1.944358-8.156554 0l-3.462442 2.838641c-1.162537.952905-2.575486 1.435888-3.993532 1.455003-1.417728-.019115-2.830677-.502098-3.992895-1.455003l-3.462442-2.838641c-1.209051-.991135-2.688904-1.474118-4.16366-1.454684-1.474755-.019434-2.954927.463549-4.163659 1.454684l-3.46276 2.838641c-1.162219.952905-2.575168 1.435888-3.993214 1.455003-1.417409-.019115-2.830677-.502098-3.992895-1.455003l-3.462442-2.838641c-1.209051-.991135-2.689223-1.474118-4.163659-1.454684-1.474756-.019434-2.954928.463549-4.16366 1.454684l-3.46276 2.838641c-1.162219.952905-2.575168 1.435888-3.992895 1.455003-1.417728-.019115-2.830677-.502098-3.992895-1.455003l-3.463079-2.838641c-1.208733-.991135-2.688586-1.474118-4.163341-1.454366-1.474756-.019752-2.954609.463231-4.16366 1.454366l-3.462442 2.838641c-1.162536.952905-2.575485 1.435888-3.993532 1.455003-1.417728-.019115-2.830677-.502098-3.992895-1.455003l-3.462442-2.838641c-1.209051-.991135-2.688904-1.474118-4.163659-1.454684-1.474756-.019434-2.954927.463549-4.163978 1.454684l-3.462442 2.838641c-1.162218.952905-2.575167 1.435888-3.993214 1.455003-1.417409-.019115-2.830677-.502098-3.992895-1.455003l-3.462442-2.838641c-1.209051-.991135-2.689222-1.474118-4.163978-1.454684-1.474755-.019434-2.95429.463549-4.163341 1.454684l-3.46276 2.838641c-1.162537.952905-2.575167 1.435888-3.992895 1.455003-1.418046-.019115-2.830677-.502098-3.993214-1.455003l-3.46276-2.838641c-1.209051-.991135-2.688585-1.474118-4.163341-1.454366-1.474756-.019752-2.954609.463231-4.16366 1.454366l-3.46276 2.838641c-1.162218.952905-2.575486 1.435888-3.992895 1.455003-1.418046-.019115-2.830995-.502098-3.993214-1.455003l-3.462441-2.838641c-1.209051-.991135-2.689223-1.474118-4.16366-1.454684-1.474755-.019434-2.954927.463549-4.163978 1.454684l-3.462442 2.838641c-1.162218.952905-2.575167 1.435888-3.992895 1.455003-1.417728-.019115-2.830995-.502098-3.993213-1.455003l-3.462761-2.838641c-1.208732-.991135-2.688904-1.474118-4.163659-1.454366-1.474756-.019752-2.95429.463231-4.163341 1.454366l-3.462761 2.838641c-1.162537.952905-2.575167 1.435888-3.993213 1.455003-1.417728-.019115-2.830359-.502098-3.992895-1.455003l-3.462761-2.838641c-1.209051-.991135-2.688585-1.474118-4.163341-1.454684-1.474755-.019434-2.954927.463549-4.163978 1.454684l-3.462442 2.838641c-1.162218.952905-2.575485 1.435888-3.992895 1.455003-1.418046-.019115-2.830995-.502098-3.993213-1.455003l-3.462442-2.838641c-2.371588-1.944358-5.785604-1.944358-8.157192 0l-3.462123 2.838641c-2.371269 1.944358-5.785604 1.944358-8.157192 0l-3.462442-2.838641c-2.371269-1.944358-5.785285-1.944358-8.156554 0l-3.462442 2.838641c-2.371588 1.944358-5.785604 1.944358-8.156873 0l-3.46276-2.838641c-2.37127-1.944358-5.785286-1.944358-8.156874 0l-3.462441 2.838641c-2.37127 1.944358-5.785286 1.944358-8.156555 0l-3.462442-2.838641c-2.371588-1.944358-5.785922-1.944358-8.157191 0l-3.462124 2.838641c-2.371588 1.944358-5.785604 1.944358-8.157191 0l-3.462124-2.838641c-2.371269-1.944358-5.785603-1.944358-8.156873 0l-3.46276 2.838641c-2.371269 1.944358-5.785285 1.944358-8.156555 0l-3.46276-2.838641c-2.371588-1.944358-5.785285-1.944358-8.156873 0l-3.462442 2.838641c-2.371269 1.944358-5.785285 1.944358-8.156555 0l-3.46276-2.838641c-2.371269-1.944358-5.785604-1.944358-8.156873 0l-3.462123 2.838641c-2.371588 1.944358-5.785923 1.944358-8.157192 0l-3.376741-2.768551c-2.409819-1.97558-5.888509-1.940217-8.257229.083789l-7.448328 6.364164c-1.430471 1.222114-2.254028 3.009088-2.254028 4.890683 0 3.552603 2.880058 6.432343 6.43298 6.432343h572.282244c3.552603 0 6.432343-2.87974 6.432343-6.432343 0-1.881595-.823238-3.668569-2.25371-4.890683" mask="url(#b)"/>
      <path fill="#1F2225" d="M735.233108 480.534705s8.960359-14.216465 17.28035-14.216465c8.319992 0 16.978645 14.216465 16.978645 14.216465s-19.538838 3.976328-34.258995 0" mask="url(#b)"/>
      <path fill="#36393F" d="M549.162257 480.535947s44.16716 17.814945 110.922069 16.646992c69.177472-1.210007 94.272848-10.22803 94.272848-10.22803s-8.387214-29.721947-53.133891-41.204268c-45.045195-11.559101-83.678437-27.670861-104.485266-13.297968-20.80651 14.372892-47.57576 48.083274-47.57576 48.083274" mask="url(#b)"/>
      <path fill="#1F2225" d="M598.834056 494.883385c-2.548724-5.45427-10.370121-19.822384-22.006959-19.68762-11.68367.135401-24.780927 11.313468-30.434315 17.152276-.000956.000956 4.07541 1.996607 4.074454 1.997563 19.413632 8.867648 43.402861 1.096907 48.36682.537781" mask="url(#b)"/>
      <path fill="#36393F" mask="url(#b)" d="M591.644 405.383l9.642-7.366 10.062 7.366"/>
      <path fill="#8EA1E1" mask="url(#b)" d="M592.055 439.233h2.054v-20.151h-2.054M600.469 435.551h2.054v-16.469h-2.054M608.883 439.233h2.054v-20.151h-2.054"/>
      <path fill="#FFF" mask="url(#b)" d="M591.644 419.595h19.704v-14.331h-19.704"/>
      <path fill="#36393F" mask="url(#b)" d="M683.677 386.196l7.301-5.427 7.618 5.427"/>
      <path fill="#FFF" mask="url(#b)" d="M684.388 395.826h13.498v-9.63h-13.498M700.727 443.479h-19.181l2.131-43.007h14.919"/>
      <path fill="#FFF" mask="url(#b)" d="M683.677 402.335h14.919v-6.508h-14.919M703.045011 452.754909h-23.347702c-.180361 0-.326149-.186109-.326149-.416352v-11.277296c0-.230243.145788-.416352.326149-.416352h23.347702c.180034 0 .326149.186109.326149.416352v11.277296c0 .230243-.146115.416352-.326149.416352"/>
      <path fill="#8EA1E1" d="M693.443333 395.25034h-4.70096c-.140104 0-.253265-.113161-.253265-.25368v-3.621575c0-1.437936 1.165602-2.603953 2.603953-2.603953 1.43835 0 2.603952 1.166017 2.603952 2.603953v3.621575c0 .140519-.113575.25368-.25368.25368M688 452.751h5.17V443H688" mask="url(#b)"/>
      <path fill="#F9F9FD" mask="url(#b)" d="M619.482 452.751h64.986v-37.796h-64.986"/>
      <path fill="#8EA1E1" mask="url(#b)" d="M625.047 431.889h4.53v-7.926h-4.53M637.379 431.889h4.529v-7.926h-4.529M649.711 431.889h4.529v-7.926h-4.529M662.042 431.889h4.529v-7.926h-4.529M674.374 431.889h4.529v-7.926h-4.529M625.047 443.744h4.53v-7.926h-4.53M637.379 443.744h4.529v-7.926h-4.529M649.711 443.744h4.529v-7.926h-4.529M662.042 443.744h4.529v-7.926h-4.529M674.374 443.744h4.529v-7.926h-4.529"/>
      <path fill="#E3E7F9" d="M979.22429 493.184341l-7.448009-6.364164c-2.368402-2.024006-5.847411-2.059369-8.257229-.083789l-3.37706 2.768551c-2.371588 1.944358-5.785604 1.944358-8.156873 0l-3.462442-2.838641c-2.371588-1.944358-5.785604-1.944358-8.157191 0l-3.462124 2.838641c-2.371269 1.944358-5.785604 1.944358-8.156873 0l-3.462442-2.838641c-2.371269-1.944358-5.785604-1.944358-8.156873 0l-3.462442 2.838641c-2.371587 1.944358-5.785285 1.944358-8.156873 0l-3.462442-2.838641c-2.371269-1.944358-5.785285-1.944358-8.156873 0l-3.46276 2.838641c-2.371269 1.944358-5.785285 1.944358-8.156555 0l-3.462441-2.838641c-2.371588-1.944358-5.785923-1.944358-8.157192 0l-3.462123 2.838641c-2.37127 1.944358-5.785604 1.944358-8.157192 0l-3.462123-2.838641c-2.37127-1.944358-5.785604-1.944358-8.156873 0l-3.462442 2.838641c-2.371588 1.944358-5.785604 1.944358-8.156873 0l-3.462442-2.838641c-2.371588-1.944358-5.785285-1.944358-8.156873 0l-3.462761 2.838641c-2.371269 1.944358-5.785285 1.944358-8.156554 0l-3.462761-2.838641c-2.371269-1.944358-5.785285-1.944358-8.156554 0l-3.462442 2.838641c-1.162537.952905-2.575486 1.435888-3.992895 1.454685-1.418365-.018797-2.830995-.50178-3.993532-1.454685l-3.462442-2.838641c-1.209051-.991135-2.688904-1.474119-4.16366-1.454685-1.474755-.019434-2.954927.46355-4.163659 1.454685l-3.46276 2.838641c-1.162219.952905-2.575168 1.435888-3.993214 1.454685-1.417409-.018797-2.830677-.50178-3.992895-1.454685l-3.462442-2.838641c-1.209051-.991135-2.689223-1.474119-4.163659-1.454685-1.474756-.019434-2.954609.46355-4.16366 1.454685l-3.46276 2.838641c-1.162219.952905-2.575168 1.435888-3.992895 1.454685-1.417728-.018797-2.830677-.50178-3.992895-1.454685l-3.463079-2.838641c-1.208414-.991135-2.688586-1.474119-4.163341-1.454685-1.474756-.019434-2.954609.46355-4.16366 1.454685l-3.462442 2.838641c-1.162536.952905-2.575485 1.435888-3.993532 1.454685-1.417728-.018797-2.830677-.50178-3.992895-1.454685l-3.462442-2.838641c-1.209051-.991135-2.688904-1.474119-4.163659-1.454685-1.474756-.019434-2.954927.46355-4.163978 1.454685l-3.462442 2.838641c-1.162218.952905-2.575167 1.435888-3.992895 1.454685-1.417728-.018797-2.830996-.50178-3.993214-1.454685l-3.462442-2.838641c-1.209051-.991135-2.689222-1.474119-4.163978-1.454685-1.474755-.019434-2.95429.46355-4.163341 1.454685l-3.46276 2.838641c-1.162537.952905-2.575167 1.435888-3.992895 1.454685-1.418046-.018797-2.830677-.50178-3.993214-1.454685l-3.46276-2.838641c-1.209051-.991135-2.688585-1.474119-4.163341-1.454685-1.474756-.019434-2.954609.46355-4.16366 1.454685l-3.46276 2.838641c-1.162218.952905-2.575486 1.435888-3.992895 1.454685-1.418046-.018797-2.830995-.50178-3.993214-1.454685l-3.462441-2.838641c-1.209051-.991135-2.689223-1.474119-4.16366-1.454685-1.474755-.019434-2.954927.46355-4.163978 1.454685l-3.462442 2.838641c-1.162218.952905-2.575167 1.435888-3.992895 1.454685-1.417728-.018797-2.830995-.50178-3.993213-1.454685l-3.462761-2.838641c-1.208732-.991135-2.688904-1.474119-4.163659-1.454685-1.474756-.019434-2.95429.46355-4.163341 1.454685l-3.462761 2.838641c-1.162537.952905-2.575167 1.435888-3.993213 1.454685-1.417728-.018797-2.830359-.50178-3.992895-1.454685l-3.462761-2.838641c-1.209051-.991135-2.688585-1.474119-4.163341-1.454685-1.474755-.019434-2.954927.46355-4.163978 1.454685l-3.462442 2.838641c-1.162218.952905-2.575485 1.435888-3.992895 1.454685-1.418046-.018797-2.830995-.50178-3.993213-1.454685l-3.462442-2.838641c-2.371588-1.944358-5.785604-1.944358-8.157192 0l-3.462123 2.838641c-2.371269 1.944358-5.785604 1.944358-8.157192 0l-3.462442-2.838641c-2.371269-1.944358-5.785285-1.944358-8.156554 0l-3.462442 2.838641c-2.371588 1.944358-5.785604 1.944358-8.156873 0l-3.46276-2.838641c-2.37127-1.944358-5.785286-1.944358-8.156874 0l-3.462441 2.838641c-2.37127 1.944358-5.785286 1.944358-8.156555 0l-3.462442-2.838641c-2.371588-1.944358-5.785922-1.944358-8.157191 0l-3.462124 2.838641c-2.371588 1.944358-5.785604 1.944358-8.157191 0l-3.462124-2.838641c-2.371269-1.944358-5.785603-1.944358-8.156873 0l-3.46276 2.838641c-2.371269 1.944358-5.785285 1.944358-8.156555 0l-3.46276-2.838641c-2.371588-1.944358-5.785285-1.944358-8.156873 0l-3.462442 2.838641c-2.371269 1.944358-5.785285 1.944358-8.156555 0l-3.46276-2.838641c-2.371269-1.944358-5.785604-1.944358-8.156873 0l-3.462123 2.838641c-2.371588 1.944358-5.785923 1.944358-8.157192 0l-3.376741-2.768551c-2.409819-1.97558-5.888509-1.940217-8.257229.083789l-7.448328 6.364164c-1.430471 1.222114-2.254028 3.009088-2.254028 4.890683 0 3.552603 2.880058 6.432343 6.43298 6.432343h572.282244c3.552603 0 6.432343-2.87974 6.432343-6.432343 0-1.881595-.823238-3.668569-2.25371-4.890683" mask="url(#b)"/>
      <path fill="#F9F9FD" mask="url(#b)" d="M825.229 224.518h-56.761V106.702l28.33-9.338 28.431 9.338"/>
      <path fill="#FFF" mask="url(#b)" d="M851.4 353.042H742.297l54.551-315.161"/>
      <path fill="#C9D2F0" mask="url(#b)" d="M802.659 122.624h-11.621l-1.057 6.109h13.735M806.286 143.579h-18.875l-1.057 6.11h20.989M809.913 164.535h-26.129l-1.058 6.11h28.245M813.54 185.491h-33.383l-1.058 6.11h35.499M817.168 206.447h-40.639l-1.057 6.11h42.753M820.795 227.403h-47.893l-1.057 6.109h50.007M824.422 248.358h-55.147l-1.058 6.11h57.263M828.049 269.314h-62.401l-1.058 6.11h64.517M831.677 290.27H762.02l-1.057 6.11h71.771M757.336 317.336h79.025l-1.057-6.11h-76.911M753.708 338.291h85.552v-4.21l-.329-1.899h-84.165M281.609 336.909H389.75V208.071H281.609"/>
      <path fill="#C9D2F0" mask="url(#b)" d="M272.916 352.594h125.528V228.955H272.916"/>
      <path fill="#FFF" mask="url(#b)" d="M272.916 233.13h125.528v-4.175H272.916M272.916 241.478h125.528v-4.174H272.916M272.916 249.827h125.528v-4.175H272.916"/>
      <path fill="#F9F9FD" mask="url(#b)" d="M281.609 212.245H389.75v-4.174H281.609M281.609 220.593H389.75v-4.174H281.609M281.609 228.941H389.75v-4.174H281.609"/>
      <path fill="#FFF" mask="url(#b)" d="M272.916 258.175h125.528v-4.174H272.916M272.916 266.523h125.528v-4.174H272.916M272.916 274.872h125.528v-4.175H272.916M272.916 283.22h125.528v-4.174H272.916M272.916 291.568h125.528v-4.174H272.916M272.916 299.917h125.528v-4.175H272.916M272.916 308.265h125.528v-4.174H272.916M272.916 316.613h125.528v-4.174H272.916M272.916 324.962h125.528v-4.175H272.916M272.916 333.31h125.528v-4.174H272.916M272.916 341.658h125.528v-4.174H272.916M272.916 350.006h125.528v-4.174H272.916"/>
      <path fill="#F9F9FD" mask="url(#b)" d="M465.385 352.594V163.997l-67.392 31.496v157.101"/>
      <path fill="#A9BBED" mask="url(#b)" d="M459.846 353.042V182.524l-4.174 1.951v168.567M449.601 353.042v-165.73l-4.175 1.951v163.779M439.355 353.042V192.1l-4.174 1.951v158.991M429.109 353.042V196.889l-4.174 1.951v154.202"/>
      <path fill="#F9F9FD" mask="url(#b)" d="M470.287 314.379h42.16v-90.395h-42.16"/>
      <path fill="#FFF" mask="url(#b)" d="M465.385 353.043h51.964V232.477h-51.964"/>
      <path fill="#C9D2F0" mask="url(#b)" d="M473.775 255.211h8.661v-12.99h-8.661M487.037 255.211h8.661v-12.99h-8.661M500.298 255.211h8.661v-12.99h-8.661M473.775 272.384h8.661v-12.991h-8.661M487.037 272.384h8.661v-12.991h-8.661M500.298 272.384h8.661v-12.991h-8.661M473.775 289.557h8.661v-12.991h-8.661M487.037 289.557h8.661v-12.991h-8.661M500.298 289.557h8.661v-12.991h-8.661M473.775 306.729h8.661v-12.99h-8.661M487.037 306.729h8.661v-12.99h-8.661M500.298 306.729h8.661v-12.99h-8.661M473.775 323.902h8.661v-12.991h-8.661M487.037 323.902h8.661v-12.991h-8.661M500.298 323.902h8.661v-12.991h-8.661M473.775 341.074h8.661v-12.99h-8.661M487.037 341.074h8.661v-12.99h-8.661M500.298 341.074h8.661v-12.99h-8.661"/>
      <path fill="#EFF1FB" d="M873.931365 311.426887c0-13.211949 10.710376-23.922325 23.922644-23.922325 13.211949 0 23.922325 10.710376 23.922325 23.922325 0 13.212268-10.710376 23.922644-23.922325 23.922644-13.212268 0-23.922644-10.710376-23.922644-23.922644" mask="url(#b)"/>
      <path fill="#F9F9FD" mask="url(#b)" d="M843.94 353.043h107.971v-41.616H843.94"/>
      <path fill="#A9BBED" mask="url(#b)" d="M873.931 353.043h47.988v-29.894h-47.988M632.633 242.173h1.274v-27.08h-1.274"/>
      <path fill="#F9F9FD" mask="url(#b)" d="M635.182 221.465h13.699v-6.372h-13.699"/>
      <path fill="#C9D2F0" mask="url(#b)" d="M635.182 216.049h13.699v-.956h-13.699M635.182 217.96h13.699v-.956h-13.699M635.182 220.19h13.699v-.955h-13.699"/>
      <path fill="#A9BBED" mask="url(#b)" d="M635.101 217.96h4.141v-2.867h-4.141"/>
      <path fill="#C9D2F0" mask="url(#b)" d="M635.182 222.42h13.699v-.955h-13.699"/>
      <path fill="#F9F9FD" mask="url(#b)" d="M627.854 295.696h10.513v-65.948h-10.513"/>
      <path fill="#FFF" mask="url(#b)" d="M621.164 311.626h24.212v-65.948h-24.212"/>
      <path fill="#C9D2F0" mask="url(#b)" d="M621.164 252.687h24.212v-2.549h-24.212"/>
      <path fill="#F9F9FD" mask="url(#b)" d="M504.878 353.043h256.465v-50.019H504.878"/>
      <path fill="#A9BBED" d="M701.607822 341.891819c-2.023687 0-3.663791 1.640423-3.663791 3.663791v7.486877h7.327582v-7.486877c0-2.023368-1.640104-3.663791-3.663791-3.663791m13.062212 0c-2.023687 0-3.663791 1.640423-3.663791 3.663791v7.486877h7.327582v-7.486877c0-2.023368-1.640104-3.663791-3.663791-3.663791m13.062211 0c-2.023687 0-3.663791 1.640423-3.663791 3.663791v7.486877h7.327582v-7.486877c0-2.023368-1.640104-3.663791-3.663791-3.663791m13.062211 0c-2.023687 0-3.663791 1.640423-3.663791 3.663791v7.486877h7.327582v-7.486877c0-2.023368-1.640104-3.663791-3.663791-3.663791m12.743621 0c-2.023687 0-3.663791 1.640423-3.663791 3.663791v7.486877h7.327582v-7.486877c0-2.023368-1.640104-3.663791-3.663791-3.663791" mask="url(#b)"/>
      <path fill="#C9D2F0" d="M701.61652 317.360349h-.017523c-2.018589 0-3.65487 1.636599-3.65487 3.655189v14.18588h7.327582v-14.18588c0-2.01859-1.6366-3.655189-3.655189-3.655189m13.062211 0h-.017522c-2.01859 0-3.654871 1.636599-3.654871 3.655189v14.18588h7.327582v-14.18588c0-2.01859-1.636599-3.655189-3.655189-3.655189m13.062212 0h-.017523c-2.018589 0-3.65487 1.636599-3.65487 3.655189v14.18588h7.327582v-14.18588c0-2.01859-1.6366-3.655189-3.655189-3.655189m13.062211 0h-.017522c-2.01859 0-3.654871 1.636599-3.654871 3.655189v14.18588h7.327582v-14.18588c0-2.01859-1.636599-3.655189-3.655189-3.655189m12.743621 0h-.017523c-2.018589 0-3.65487 1.636599-3.65487 3.655189v14.18588h7.327582v-14.18588c0-2.01859-1.6366-3.655189-3.655189-3.655189" mask="url(#b)"/>
      <path fill="#A9BBED" d="M513.958004 341.891819c-2.023687 0-3.663791 1.640423-3.663791 3.663791v7.486877h7.327582v-7.486877c0-2.023368-1.640104-3.663791-3.663791-3.663791m13.062212 0c-2.023687 0-3.663791 1.640423-3.663791 3.663791v7.486877h7.327582v-7.486877c0-2.023368-1.640104-3.663791-3.663791-3.663791m12.743621 0c-2.023687 0-3.663791 1.640423-3.663791 3.663791v7.486877h7.327582v-7.486877c0-2.023368-1.640104-3.663791-3.663791-3.663791m13.062211 0c-2.023687 0-3.663791 1.640423-3.663791 3.663791v7.486877h7.327582v-7.486877c0-2.023368-1.640104-3.663791-3.663791-3.663791m13.062212 0c-2.023687 0-3.663791 1.640104-3.663791 3.663791v7.486877h7.327263v-7.486877c0-2.023687-1.640104-3.663791-3.663472-3.663791" mask="url(#b)"/>
      <path fill="#EEF2FF" mask="url(#b)" d="M504.878 311.626h256.465v-8.602H504.878"/>
      <path fill="#FFF" mask="url(#b)" d="M574.968 353.043h118.834v-53.842H574.968"/>
      <path fill="#A9BBED" mask="url(#b)" d="M583.251 335.201v17.841h17.842v-17.841M620.207944 322.672464c-4.926684 0-8.920535 7.760546-8.920535 12.653141v17.716819h17.841069v-17.716819c0-4.892595-3.99385-12.653141-8.920534-12.653141m28.035966 0c-4.926684 0-8.920535 7.760546-8.920535 12.653141v17.716819h17.841069v-17.716819c0-4.892595-3.99385-12.653141-8.920534-12.653141M667.678 335.201v17.841h17.841v-17.841"/>
      <path fill="#F9F9FD" mask="url(#b)" d="M574.968 307.166h118.834v-7.965H574.968"/>
      <path fill="#C9D2F0" d="M592.200269 325.006521h-.05671c-4.911072 0-8.89218 3.981108-8.89218 8.892181V342.529h17.84107v-8.630298c0-4.911073-3.981108-8.892181-8.89218-8.892181M629.128478 342.529v-16.2427c0-4.892595-3.965814-8.85841-8.858409-8.85841h-.123932c-4.892594 0-8.858728 3.965815-8.858728 8.85841v16.2427h17.841069m19.134706-25.168651h-.03823c-4.916489 0-8.901738 3.985567-8.901738 8.901419V342.529h17.841069v-16.267232c0-4.915852-3.98493-8.901419-8.901101-8.901419m28.363573 7.646172h-.056709c-4.911073 0-8.89218 3.981108-8.89218 8.892181V342.529h17.841069v-8.630298c0-4.911073-3.981107-8.892181-8.89218-8.892181m-162.660055-7.646172h-.017522c-2.01859 0-3.654871 1.636599-3.654871 3.655189v14.18588h7.327582v-14.18588c0-2.01859-1.636599-3.655189-3.655189-3.655189m13.062211 0h-.017522c-2.01859 0-3.654871 1.636599-3.654871 3.655189v14.18588h7.327582v-14.18588c0-2.01859-1.636599-3.655189-3.655189-3.655189m12.743621 0h-.017522c-2.01859 0-3.654871 1.636599-3.654871 3.655189v14.18588h7.327582v-14.18588c0-2.01859-1.636599-3.655189-3.655189-3.655189m13.062212 0h-.017523c-2.018589 0-3.65487 1.636599-3.65487 3.655189v14.18588h7.327582v-14.18588c0-2.01859-1.6366-3.655189-3.655189-3.655189m13.062211 0h-.017522c-2.01859 0-3.654871 1.636599-3.654871 3.655189v14.18588h7.327264v-14.18588c0-2.01859-1.636281-3.655189-3.654871-3.655189" mask="url(#b)"/>
      <path fill="#A9BBED" d="M626.898345 263.200119c0-3.343289 2.710249-6.05322 6.05322-6.05322 3.34297 0 6.05322 2.709931 6.05322 6.05322 0 3.342971-2.71025 6.05322-6.05322 6.05322-3.342971 0-6.05322-2.710249-6.05322-6.05322" mask="url(#b)"/>
      <path fill="#FFF" fill-opacity=".3" d="M1056.15301 357.530759c-15.91488-19.071785-32.50293-41.293155-56.210523-43.807471-30.695879-3.255358-60.015127 22.089792-90.211774 15.684848-29.994342-6.362253-35.511374-39.441188-60.575209-49.479019-27.425228-10.983409-59.614659-12.061519-87.933852-3.941602-19.877499 5.699265-36.975616 15.54881-55.934938 22.733664-18.958684 7.184534-41.798439 11.623138-61.510272 5.624397-19.550307-5.949678-31.19957-20.503212-47.38588-30.500901-35.836973-22.135033-92.508174-18.772628-130.466642 1.374081-23.254241 12.342197-45.711687 31.153374-74.162139 28.314095-8.052375-.803804-15.549129-3.374511-23.353322-5.034686-31.710271-6.746473-83.44077 30.835421-106.537308 59.032594h794.281859z" mask="url(#b)"/>
      <path fill="#A9BBED" d="M522.218961 533.982916s-10.350369-59.706731-48.500628-102.259274c-38.150259-42.551906-89.775942-82.705463-152.078549-78.621769-60.049216 3.936504-57.269514-115.777071-135.223517-117.228569-77.954322-1.451498-82.265807 100.794714-124.0129537 105.816338-41.7471463 5.021623-62.922584-65.05969-133.448968-64.888925l.6241189 257.237953 592.6404968-.055754z" mask="url(#b)"/>
      <path fill="#FFF" mask="url(#b)" d="M182.915 212.901h1.157v-25.393h-1.157M169.293 212.901h1.157v-18.964h-1.157M155.671 209.396h1.157v-10.284h-1.157M210.16 208.696h1.157v-9.963h-1.157M196.537 212.901h1.158v-18.964h-1.158"/>
      <path fill="#FFF" mask="url(#b)" d="M168.549 204.296l-5.532-7.582-5.378 7.577-.787-.558 6.154-8.67 6.323 8.664M209.416 204.296l-5.533-7.582-5.378 7.577-.786-.558 6.153-8.67 6.323 8.664M182.106 207.676l-5.466-15.495-5.316 15.492-.912-.314 6.215-18.112 6.388 18.109M195.729 207.679l-5.467-15.201-5.317 15.197-.911-.318 6.215-17.764 6.388 17.76"/>
      <path fill="#36393F" mask="url(#b)" d="M183.805 188.296l28.673 10.2.511-1.824-29.184-10.607-29.538 10.551.513 1.828"/>
      <path fill="#FFF" mask="url(#b)" d="M183.805 188.296l-29.025 10.148.397 1.411 28.608-9.82 28.293 9.883v.001l.4-1.423M131.328 266.632h105.875v-63.78H131.328"/>
      <path fill="#36393F" mask="url(#b)" d="M160.748 266.632h47.035v-31.843h-47.035"/>
      <path fill="#8EA1E1" mask="url(#b)" d="M165.965 266.632h15.807v-26.741h-15.807M186.874 266.632h15.807v-26.741h-15.807"/>
      <path fill="#A9BBED" mask="url(#b)" d="M136.69 245.348h5.631v-5.632h-5.631M136.69 252.735h5.631v-5.632h-5.631M136.69 260.122h5.631v-5.631h-5.631M144.079 245.348h5.631v-5.632h-5.631M144.079 252.735h5.631v-5.632h-5.631M144.079 260.122h5.631v-5.631h-5.631M151.468 245.348h5.632v-5.632h-5.632M151.468 252.735h5.632v-5.632h-5.632M151.468 260.122h5.632v-5.631h-5.632M211.651 245.348h5.632v-5.632h-5.632M211.651 252.735h5.632v-5.632h-5.632M211.651 260.122h5.632v-5.631h-5.632M219.04 245.348h5.632v-5.632h-5.632M219.04 252.735h5.632v-5.632h-5.632M219.04 260.122h5.632v-5.631h-5.632M226.429 245.348h5.632v-5.632h-5.632M226.429 252.735h5.632v-5.632h-5.632M226.429 260.122h5.632v-5.631h-5.632M136.69 216.524h5.631v-5.631h-5.631M136.69 223.912h5.631v-5.632h-5.631M144.079 216.524h5.631v-5.631h-5.631M144.079 223.912h5.631v-5.632h-5.631M151.468 216.524h5.632v-5.631h-5.632M151.468 223.912h5.632v-5.632h-5.632M161.677 216.524h5.631v-5.631h-5.631M161.677 223.912h5.631v-5.632h-5.631M169.066 216.524h5.632v-5.631h-5.632M169.066 223.912h5.632v-5.632h-5.632M176.455 216.524h5.632v-5.631h-5.632M176.455 223.912h5.632v-5.632h-5.632M186.664 216.524h5.632v-5.631h-5.632M186.664 223.912h5.632v-5.632h-5.632M194.053 216.524h5.632v-5.631h-5.632M194.053 223.912h5.632v-5.632h-5.632M201.442 216.524h5.632v-5.631h-5.632M201.442 223.912h5.632v-5.632h-5.632M211.651 216.524h5.632v-5.631h-5.632M211.651 223.912h5.632v-5.632h-5.632M219.04 216.524h5.632v-5.631h-5.632M219.04 223.912h5.632v-5.632h-5.632M226.429 216.524h5.632v-5.631h-5.632M226.429 223.912h5.632v-5.632h-5.632"/>
      <path fill="#738BD7" d="M154.365423 248.103771c-.3119-2.096325-.759201-4.629439-2.772056-5.772541-2.206558-1.252698-4.553614.27112-5.569599 2.281426-.624756 1.237406-1.080978 2.568158-1.686937 3.819901-.554348 1.146607-1.123987 2.305958-1.50534 3.524248-.770671 2.462705-.793928 5.331931.817184 7.470311.840124 1.114748 1.961562 1.8714 3.215216 2.199548 1.047526.418947 2.182345.543516 3.281801.158021 2.28302-.799662 3.376741-3.567576 3.939372-5.706912.684969-2.60384.674137-5.326833.280359-7.974002" mask="url(#b)"/>
      <path fill="#36393F" d="M151.465103 249.414835c-.645146.417035-1.290292.833751-1.935438 1.250468v-3.851123c0-.610419-.948444-.611375-.948444 0v7.263864c-.533002-.412574-1.066004-.82483-1.599324-1.237405-.476612-.368609-1.152661.297563-.670633.670633l2.104927 1.628316c.053205.041098.10864.067541.16503.084745v16.973229c0 .610419.948444.611375.948444 0v-12.955165c.523763-.340892 1.047844-.681465 1.571607-1.022039.509745-.331334.035364-1.15266-.478841-.818777-.363831.236712-.728617.473744-1.092766.710457v-6.318606l2.413961-1.559819c.5107-.33006.036-1.151068-.478523-.818778" mask="url(#b)"/>
      <path fill="#738BD7" d="M227.841892 251.257626c.026443-4.378389-.621252-12.022969-6.856705-8.716318-3.882344 2.058413-4.697299 7.95202-5.113697 11.813018-.21473 1.990235.224925 4.012329 1.715292 5.434836 1.394152 1.330115 3.79951 2.488192 5.749603 2.359481 4.975428-.328148 4.484798-7.432398 4.505507-10.891017" mask="url(#b)"/>
      <path fill="#36393F" d="M225.128584 252.305662c-.618066.612968-1.236769 1.226255-1.855153 1.838904v-7.330449c0-.610101-.948444-.611057-.948444 0v3.970912c-.315723-.328148-.631765-.656296-.947807-.984126-.424044-.440292-1.094358.230659-.670633.670633.531728.552117 1.063774 1.104235 1.595502 1.656352.007327.007646.015292.012425.022938.019434v5.278089c-.456859-.497957-.959913-.944939-1.523818-1.336487-.502418-.348857-.976799.472788-.478842.818778.669996.465142 1.270539 1.033507 1.764036 1.683432.067222.088887.150375.14464.238624.174269v12.795233c0 .6101.948444.611056.948444 0v-16.080538c.841716-.834708 1.68407-1.669415 2.525786-2.504122.434239-.430097-.236394-1.10073-.670633-.670314" mask="url(#b)"/>
      <path fill="#738BD7" d="M434.012301 461.186224c-.42277-2.84119-1.028729-6.274321-3.757138-7.823627-2.99061-1.698088-6.171736.367335-7.548047 3.092239-.847132 1.677061-1.465517 3.480602-2.286206 5.177096-.751873 1.553448-1.523818 3.124736-2.040572 4.77631-1.044658 3.337554-1.076199 7.225951 1.107421 10.124169 1.138642 1.510756 2.658319 2.536299 4.357681 2.981052 1.419958.568047 2.957794.7369 4.447842.214411 3.094151-1.083845 4.576234-4.835567 5.33894-7.734422.928054-3.529027.914036-7.21958.380079-10.807228" mask="url(#b)"/>
      <path fill="#36393F" d="M430.081276 462.963067c-.874213.564861-1.748425 1.130041-2.622956 1.694583v-5.21915c0-.827061-1.285513-.828654-1.285513 0v9.844448c-.722244-.558808-1.444808-1.117935-2.167371-1.676742-.64642-.499869-1.562687.403335-.908939.908938.950993.735307 1.901986 1.470933 2.85266 2.206558.07232.055435.147826.091754.22365.115012v23.003828c0 .827061 1.285513.828336 1.285513 0v-17.558161c.70982-.461956 1.420277-.923594 2.130096-1.385231.690705-.449213.04747-1.562368-.64865-1.109651-.493815.320821-.987949.64196-1.481446.963099v-8.564032l3.271606-2.113848c.692616-.447301.048744-1.560138-.64865-1.109651" mask="url(#b)"/>
      <path fill="#738BD7" d="M452.665393 394.38582c.037275-6.194037-.878991-17.008911-9.700125-12.331046-5.492182 2.912236-6.645161 11.249431-7.234235 16.711984-.303936 2.815385.317953 5.676328 2.426385 7.688546 1.972075 1.881595 5.375578 3.520106 8.134253 3.337872 7.038302-.464505 6.344093-10.514443 6.373722-15.407356" mask="url(#b)"/>
      <path fill="#36393F" d="M448.827078 395.868317c-.874849.867204-1.749699 1.734407-2.624548 2.601929v-10.370758c0-.863381-1.341585-.864655-1.341585 0v5.617388c-.447301-.463868-.893965-.928054-1.340947-1.391922-.600225-.623163-1.54835.326236-.948763.948444.752511.781184 1.504703 1.562368 2.256895 2.343552.010514.010832.021983.017522.032815.027398v7.466488c-.646739-.704085-1.358151-1.336169-2.155902-1.890198-.710775-.493815-1.382364.668403-.677323 1.158395.947488.65789 1.797169 1.462012 2.495519 2.381465.09494.125843.212819.204535.337706.246589v18.101039c0 .863061 1.341585.864654 1.341585 0V400.35917c1.190891-1.180697 2.382101-2.361393 3.57363-3.54209.613605-.609145-.334839-1.557589-.949082-.948763" mask="url(#b)"/>
      <path fill="#738BD7" d="M497.994867 446.418439c-.540011-.891098-1.09404-1.773913-1.545483-2.712162-.891097-1.851966-1.368983-3.888397-2.338773-5.700858-1.870126-3.495894-4.861372-4.238847-8.274114-2.429253-3.248349 1.722619-4.897055 5.294656-5.847092 8.678406-.801574 2.857119-2.40504 6.705056-1.839542 9.702674.617429 3.27288 2.987424 6.630506 5.258018 8.967686 1.253336 1.289973 2.782251 2.474493 4.573367 2.641753 2.528335.236075 4.782363-1.608564 6.322111-3.627791 1.141828-1.497375 1.735044-3.465946 2.934537-4.868381 1.152342-1.347638 2.403765-2.056821 2.75995-3.995444.308714-1.678335-.235439-3.404458-1.014074-4.922861-.303935-.591941-.643553-1.164448-.988905-1.733769" mask="url(#b)"/>
      <path fill="#36393F" d="M492.221975 447.013916c.613924-.608826-.334839-1.557589-.949081-.948763-.87485.867204-1.324062 1.283602-2.199231 2.150487v-6.594824c0-.863381-1.341584-.864655-1.341584 0v4.542463c-.446983-.463867-.893647-.928054-1.340948-1.391922-.600224-.623163-1.547713.326237-.948444.948444.752192.781184 1.504385 1.562368 2.256895 2.343234.010514.010832.021665.017841.032497.027717v7.293174c-.684651-.582383-1.37886-1.15266-2.091547-1.701273-.644827-.496046-1.274999.601817-.638455 1.091491.900018.692934 1.771681 1.420595 2.620725 2.174699.035682.03154.07232.057028.109277.079329v19.601282c0 .863062 1.341584.864655 1.341584 0v-15.998342c.053524-.014974.105454-.035363.151649-.07009.771945-.57633 1.524456-1.176555 2.25371-1.805771.61711-.532046-.28036-1.423144-.893965-.893965-.492541.424363-.998144.832159-1.511394 1.230078v-8.986483c1.19121-1.180696 1.956783-1.910268 3.148312-3.090965" mask="url(#b)"/>
      <path fill="#FFF" mask="url(#b)" d="M387.407 498.057h-69.603v-68.021l35.059-20.623 34.544 20.623"/>
      <path fill="#36393F" d="M347.260484 429.141434c0-3.229234 2.617858-5.847411 5.84741-5.847411 3.228915 0 5.847092 2.618177 5.847092 5.847411 0 3.229552-2.618177 5.84741-5.847092 5.84741-3.229552 0-5.84741-2.617858-5.84741-5.84741" mask="url(#b)"/>
      <path fill="#A9BBED" mask="url(#b)" d="M323.972 461.395h14.207v-17.478h-14.207M323.972 490.62h14.207v-17.478h-14.207M342.2 490.62h6.044v-17.478H342.2M352.686 490.62h19.999v-17.478h-19.999M376.2 490.62h6.043v-17.478H376.2"/>
      <path fill="#36393F" d="M333.537133 465.765039h-4.923498c-3.215215 0-5.821604-2.606389-5.821604-5.821286h16.566388c0 3.214897-2.60607 5.821286-5.821286 5.821286" mask="url(#b)"/>
      <path fill="#A9BBED" mask="url(#b)" d="M368.037 461.395h14.206v-17.478h-14.206"/>
      <path fill="#36393F" d="M377.601866 465.765039h-4.923498c-3.215215 0-5.821923-2.606389-5.821923-5.821286h16.566707c0 3.214897-2.60607 5.821286-5.821286 5.821286" mask="url(#b)"/>
      <path fill="#A9BBED" mask="url(#b)" d="M342.2 461.395h21.815v-17.478H342.2"/>
      <path fill="#36393F" d="M359.373773 465.765039h-12.532077c-3.215215 0-5.821286-2.606389-5.821286-5.821286h24.174649c0 3.214897-2.606389 5.821286-5.821286 5.821286" mask="url(#b)"/>
      <path fill="#697EC4" mask="url(#b)" d="M315.947 431.197l36.926-21.721 36.518 21.801v.069l2.236-3.873-38.727-23.121-39.154 23.032"/>
      <path fill="#F9F9FD" mask="url(#b)" d="M286.135 491.018h-69.603v-80.765l35.059-20.623 34.544 20.623"/>
      <path fill="#36393F" d="M245.988203 409.359256c0-3.229552 2.617858-5.84741 5.84741-5.84741 3.229234 0 5.847092 2.617858 5.847092 5.84741 0 3.229234-2.617858 5.847411-5.847092 5.847411-3.229552 0-5.84741-2.618177-5.84741-5.847411" mask="url(#b)"/>
      <path fill="#A9BBED" mask="url(#b)" d="M222.7 441.613h14.206v-17.479H222.7M222.7 470.423h14.206v-17.478H222.7M240.928 470.423h6.043v-17.478h-6.043M251.414 470.423h19.999v-17.478h-19.999M274.928 470.423h6.043v-17.478h-6.043"/>
      <path fill="#36393F" d="M232.264852 445.982862h-4.923498c-3.215215 0-5.821604-2.606708-5.821604-5.821605h16.566388c0 3.214897-2.60607 5.821605-5.821286 5.821605" mask="url(#b)"/>
      <path fill="#A9BBED" mask="url(#b)" d="M266.764 441.613h14.207v-17.479h-14.207"/>
      <path fill="#36393F" d="M276.329585 445.982862h-4.923498c-3.215215 0-5.821604-2.606708-5.821604-5.821605h16.566388c0 3.214897-2.60607 5.821605-5.821286 5.821605" mask="url(#b)"/>
      <path fill="#A9BBED" mask="url(#b)" d="M240.928 441.613h21.815v-17.479h-21.815"/>
      <path fill="#36393F" d="M258.101492 445.982862h-12.532077c-3.215215 0-5.821286-2.606708-5.821286-5.821605h24.174649c0 3.214897-2.60607 5.821605-5.821286 5.821605" mask="url(#b)"/>
      <path fill="#697EC4" mask="url(#b)" d="M214.675 411.415l36.926-21.722 36.517 21.802v.069l2.237-3.873-38.728-23.121-39.153 23.031"/>
      <path fill="#FFF" mask="url(#b)" d="M184.863 468.05h-69.604v-80.765l35.06-20.623 34.544 20.623"/>
      <path fill="#36393F" d="M144.715922 386.390887c0-3.229234 2.618177-5.847411 5.84741-5.847411 3.229234 0 5.847092 2.618177 5.847092 5.847411 0 3.229552-2.617858 5.84741-5.847092 5.84741-3.229233 0-5.84741-2.617858-5.84741-5.84741" mask="url(#b)"/>
      <path fill="#A9BBED" mask="url(#b)" d="M121.428 418.645h14.206v-17.479h-14.206M121.428 445.795h14.206v-17.478h-14.206M139.656 445.795h6.043v-17.478h-6.043M150.142 445.795h19.999v-17.478h-19.999M173.655 445.795h6.044v-17.478h-6.044"/>
      <path fill="#36393F" d="M130.992571 423.014492h-4.923498c-3.215215 0-5.821604-2.606389-5.821604-5.821286h16.566707c0 3.214897-2.606389 5.821286-5.821605 5.821286" mask="url(#b)"/>
      <path fill="#A9BBED" mask="url(#b)" d="M165.492 418.645h14.207v-17.479h-14.207"/>
      <path fill="#36393F" d="M175.057304 423.014492h-4.923498c-3.215215 0-5.821604-2.606389-5.821604-5.821286h16.566388c0 3.214897-2.60607 5.821286-5.821286 5.821286" mask="url(#b)"/>
      <path fill="#A9BBED" mask="url(#b)" d="M139.656 418.645h21.815v-17.479h-21.815"/>
      <path fill="#36393F" d="M156.829211 423.014492h-12.532076c-3.215216 0-5.821287-2.606389-5.821287-5.821286h24.174649c0 3.214897-2.60607 5.821286-5.821286 5.821286" mask="url(#b)"/>
      <path fill="#697EC4" mask="url(#b)" d="M113.403 388.446l36.926-21.721 36.517 21.801v.07l2.236-3.874-38.727-23.121-39.154 23.032"/>
      <path fill="#36393F" d="M286.571155 462.381863c.794884-.221421 1.638512.02262 2.463342.010195 1.843047-.028036 3.392352-1.301443 4.867108-2.406315 1.475074-1.10519 3.296456-2.147937 5.067819-1.638829 1.620989.465779 2.627735 2.077529 4.093888 2.910961 1.778054 1.010888 3.995126.757609 5.975803.249138 1.981314-.50847 3.961673-1.247919 6.002564-1.116341 2.041209.131259 4.202846 1.472207 4.422355 3.50577.088568.821645-.114693 1.760531.414168 2.395164.232252.278448.570595.443478.902885.588436.909895.396645 1.870764.713324 2.66947 1.303035.799025.589393 1.425374 1.536881 1.305266 2.522282-.130623 1.069189-1.058677 1.838904-1.93034 2.471306-1.539748 1.116023-3.142577 2.177885-4.920312 2.852978-4.711636 1.789205-10.00438.658208-14.789928-.922319-4.650785-1.535925-9.16585-3.481239-13.477654-5.804401-1.285512-.692616-3.407644-1.445445-4.241077-2.735418-.86784-1.343815-.533002-3.709987 1.174643-4.185642m-67.902408-5.994727c-.055754-.851911-.364468-1.549943-1.347957-2.031015-.592578-.28928-1.265123-.336431-1.877454-.562949-1.277866-.47247-.887274-1.165723-1.219564-2.008395-.998781-2.53598-4.882081-1.783151-7.3553-1.958694-1.957101-.138269-4.272617-.308077-4.831106-2.056183-.312856-.978711-.356503-1.933526-1.156802-2.795314-.729573-.785644-1.833489-1.36516-3.019601-1.611749-1.512031-.31413-2.674886.078054-4.040684.443478-1.400843.374662-2.185212.158021-3.499398-.315405-.56518-.203579-1.114111-.362237-1.727398-.308714-1.551855.135401-2.027192 1.289654-2.935812 2.060962-.738174.626668-2.17884.995277-2.43881 1.870126-.289599.974569.923594 1.89211 1.752885 2.519096 2.402491 1.816921 5.518943 3.042539 8.429268 4.255413 6.549902 2.730003 13.845307 5.244637 21.199013 5.783055 1.073332.078374 2.258807.070728 3.080452-.497638.957046-.662031 1.050712-1.828391.988268-2.786074" mask="url(#b)"/>
      <path fill="#8EA1E1" d="M-46.4079026 504.507367s3.5809574-96.637107 115.0111786-96.637107c57.845207 0 111.529621 56.553322 201.208075 57.455889 85.735258.862743 132.334538 39.181218 132.334538 39.181218H-46.4079026z" mask="url(#b)"/>
      <path fill="#697EC4" d="M57.3847798 407.203482c.0414167-6.8806-.9761614-18.893693-10.7750501-13.697481-6.1010085 3.234649-7.3817424 12.496076-8.0364459 18.563951-.3373874 3.127603.3533169 6.305543 2.6955944 8.540775 2.1906284 2.090591 5.9710236 3.910061 9.0355458 3.708075 7.81853-.515798 7.047541-11.679529 7.0803558-17.11532" mask="url(#b)"/>
      <path fill="#292A2B" d="M53.1211465 408.850563c-.9720196.963099-1.9440393 1.926835-2.9157404 2.889934v-11.519914c0-.958958-1.4903665-.960551-1.4903665 0v6.240232c-.496364-.515479-.9927281-1.030959-1.4894107-1.546438-.6668099-.691979-1.719433.362237-1.0535788 1.053579l2.5069888 2.603203c.0117878.012106.0242129.019752.0360007.030584v8.294186c-.7177844-.78214-1.5082075-1.484313-2.3948449-2.100149-.7894674-.548294-1.5349692.742954-.7518737 1.286788 1.0523045.730846 1.9962882 1.624493 2.7717376 2.645894.105772.139224.2363941.227155.374981.273351v20.107522c0 .958639 1.4903665.960232 1.4903665 0v-25.270282c1.3231064-1.311637 2.6462129-2.623274 3.9696379-3.934593.6817837-.676368-.3714766-1.730265-1.0538975-1.053897" mask="url(#b)"/>
      <path fill="#738BD7" d="M112.740202 446.729255c-.650881-1.073012-1.318009-2.137105-1.862162-3.267464-1.074287-2.231727-1.649662-4.685192-2.817933-6.86913-2.253391-4.212086-5.857605-5.107643-9.9693348-2.92721-3.9148403 2.075617-5.9009336 6.380094-7.0453108 10.456778-.9659664 3.442371-2.8982179 8.078819-2.2167528 11.690998.7442274 3.943513 3.5994357 7.988657 6.3354911 10.804998 1.5101191 1.554403 3.3525281 2.981688 5.5106603 3.183037 3.046363.284502 5.762028-1.938304 7.617181-4.37138 1.375992-1.804178 2.090909-4.175766 3.536036-5.865889 1.388417-1.623537 2.896306-2.478315 3.325448-4.813903.371795-2.022412-.283864-4.102171-1.222432-5.931518-.365742-.713324-.774812-1.403391-1.190891-2.089317" mask="url(#b)"/>
      <path fill="#36393F" d="M105.784096 447.447008c.739767-.733714-.403335-1.876817-1.143103-1.143103-1.053897 1.044977-1.59582 1.546439-2.650036 2.591416v-7.946285c0-1.040198-1.616209-1.041791-1.616209 0v5.473066l-1.6158914-1.67706c-.7232005-.750918-1.8650289.393141-1.1431028 1.142465.90639.941435 1.8130986 1.88287 2.7194882 2.823668.013063.013381.026125.021346.039506.033134v8.787682c-.8251497-.701536-1.6614499-1.388736-2.5206885-2.049811-.7764051-.597676-1.5359249.725112-.7690775 1.31546 1.0848007.834707 2.1348751 1.711787 3.157869 2.61977.04301.037912.086975.069134.131897.095577v23.617752c0 1.040199 1.616209 1.041791 1.616209 0V463.85442c.064674-.017841.127118-.042691.182871-.084427.929648-.694208 1.836675-1.417727 2.715347-2.175973.743909-.641004-.337706-1.714973-1.076836-1.077154-.593534.511656-1.202997 1.002923-1.821382 1.48272v-10.828255c1.435251-1.422506 2.357889-2.301816 3.793139-3.724323m874.536273-168.405421l-30.063795 19.046616-.577604-.911169c-.871345-1.375674-.462594-3.197056.912762-4.06872l25.082631-15.890658c1.375674-.871345 3.197375-.462593 4.06872.913081l.577286.91085z" mask="url(#b)"/>
      <path fill="#C9D2F0" mask="url(#b)" d="M1001.213 293.829l-46.512 29.466-10.91-17.222 46.511-29.467"/>
      <path fill="#1F2225" d="M990.75577 276.403243l-47.342871 29.993068c-.249775.158339-.580471.084108-.738492-.165667l-.705997-1.11443c-.708227-1.117934-.375937-2.598424.741679-3.306651l44.1987-28.001239c1.117934-.708227 2.598424-.376256 3.306651.741997l.705997 1.114111c.158339.249775.083789.580472-.165667.738811" mask="url(#b)"/>
      <path fill="#F9F9FD" mask="url(#b)" d="M968.671 305.427l-4.192 2.656-4.933-7.786 4.192-2.656M975.976 300.799l-4.192 2.656-4.933-7.786 4.193-2.656M983.282 296.17l-4.192 2.656-4.933-7.786 4.192-2.656M961.137 315.012l-4.192 2.656-7.109-11.22 4.192-2.655M995.167 293.453l-4.192 2.656-7.109-11.22 4.192-2.656"/>
      <path fill="#36393F" d="M963.382185 317.795607c-.870389-1.374399-.462275-3.194507.912125-4.065215 1.374399-.870708 3.194507-.462593 4.065215.912125.870389 1.374081.462275 3.194188-.912125 4.064896-1.374399.870708-3.194507.462275-4.065215-.911806m23.976741-15.189982c-.870708-1.374399-.462594-3.194507.911806-4.065215 1.374399-.870708 3.194507-.462275 4.065215.912125.870708 1.374399.462275 3.194188-.911806 4.064896-1.374718.871027-3.194826.462594-4.065215-.911806" mask="url(#b)"/>
      <path fill="#A9BBED" d="M768.217486 540.947432s9.643098-86.955141 83.374184-101.618907c16.210523-3.224136 32.76608 1.092128 44.780447-22.936287 12.014048-24.028735 19.659584-64.44035 60.071199-90.653022 40.411296-26.212673 107.035584-68.808544 133.248894-62.255455 26.21267 6.553088 51.33353 52.425982 79.73046 52.425982 28.39725 0 53.98134-50.241726 64.90326-54.610558V555.62203H821.009847l-52.792361-14.674598z" mask="url(#b)"/>
      <path fill="#738BD7" d="M941.410654 386.663728c-.42277-2.841509-1.028729-6.274322-3.757138-7.823628-2.990928-1.698087-6.171736.367335-7.548047 3.09224-.847132 1.676742-1.465516 3.480283-2.286206 5.176777-.751873 1.553766-1.523818 3.125055-2.040572 4.776309-1.044977 3.337873-1.076199 7.22627 1.107421 10.124488 1.138324 1.510757 2.658 2.5363 4.357681 2.981052 1.419639.568047 2.957476.736581 4.447842.214411 3.094151-1.083845 4.576234-4.835567 5.33894-7.734422.928054-3.529027.913718-7.21958.380079-10.807227" mask="url(#b)"/>
      <path fill="#36393F" d="M937.479597 388.440571c-.874212.564861-1.748425 1.129722-2.622956 1.694583v-5.21915c0-.827061-1.285513-.828654-1.285513 0v9.844447c-.722244-.559127-1.445126-1.117934-2.167371-1.677061-.64642-.49955-1.562686.403336-.908939.908939.950993.735626 1.901667 1.471251 2.85266 2.206877.072001.055434.147507.091754.22365.115011v23.003828c0 .827061 1.285513.828336 1.285513 0v-17.558479c.70982-.461956 1.419958-.923275 2.129778-1.384913.691023-.449213.047788-1.562368-.648332-1.109651-.493815.320821-.987949.64196-1.481446.963099v-8.564031l3.271606-2.113849c.692616-.447301.048745-1.560137-.64865-1.10965" mask="url(#b)"/>
      <path fill="#738BD7" d="M1098.54922 235.941005c-.42277-2.841191-1.02873-6.274641-3.75714-7.823628-2.99093-1.698087-6.17174.367335-7.54805 3.09224-.84713 1.67706-1.46551 3.480601-2.2862 5.177096-.75188 1.553447-1.52382 3.124736-2.04058 4.77599-1.04497 3.337873-1.0762 7.22627 1.10742 10.124488 1.13833 1.510757 2.65832 2.5363 4.35769 2.981052 1.41963.567728 2.95747.736581 4.44784.214411 3.09415-1.084163 4.57623-4.835567 5.33894-7.73474.92805-3.529028.91372-7.219262.38008-10.806909" mask="url(#b)"/>
      <path fill="#36393F" d="M1094.61816 237.717848c-.87421.564861-1.74843 1.129722-2.62296 1.694583v-5.219469c0-.827061-1.28551-.828335-1.28551 0v9.844766c-.72224-.558808-1.44513-1.117934-2.16737-1.676742-.64642-.500187-1.56269.403017-.90894.90862.95099.735626 1.90167 1.471251 2.85266 2.206877.072.055753.14751.091435.22365.114692v23.003829c0 .827379 1.28551.828654 1.28551 0v-17.558161c.70982-.461638 1.42028-.923275 2.12978-1.385232.69102-.448894.04779-1.562049-.64833-1.10965-.49382.321139-.98795.642278-1.48145.963417v-8.564032l3.27161-2.113848c.69262-.447301.04874-1.560456-.64865-1.10965" mask="url(#b)"/>
      <path fill="#738BD7" d="M827.161416 436.450984c-.540011-.89078-1.09404-1.773594-1.545483-2.711843-.891097-1.851967-1.368983-3.888397-2.338773-5.700859-1.870126-3.495894-4.861372-4.239165-8.274114-2.429252-3.248349 1.7223-4.897055 5.294655-5.847092 8.678405-.801574 2.85712-2.40504 6.704738-1.839542 9.702675.617429 3.27288 2.987424 6.630506 5.258018 8.967686 1.253336 1.289654 2.782251 2.474492 4.573367 2.641752 2.528653.235757 4.782363-1.608563 6.322111-3.62779 1.141828-1.497375 1.735044-3.465946 2.934537-4.868382 1.152342-1.347638 2.403765-2.057139 2.75995-3.995443.308714-1.678335-.235439-3.404777-1.014074-4.92318-.303935-.591622-.643553-1.164448-.988905-1.733769" mask="url(#b)"/>
      <path fill="#36393F" d="M821.388524 437.046461c.613924-.608508-.334839-1.55727-.949081-.948762-.87485.867522-1.324062 1.283919-2.199231 2.150804v-6.594824c0-.86338-1.341584-.864654-1.341584 0v4.542464c-.446664-.464186-.893647-.928054-1.340948-1.392241-.600224-.622844-1.547713.326237-.948444.948444.752192.781503 1.504703 1.562687 2.257214 2.343552.010514.010832.021664.017841.032178.027718v7.293174c-.684333-.582384-1.37886-1.152661-2.091547-1.701273-.644509-.496046-1.274681.601498-.638137 1.091491.8997.692615 1.771363 1.420595 2.620726 2.174699.035682.031221.072001.057027.108958.079329v19.601281c0 .863062 1.341584.864655 1.341584 0v-15.998341c.053524-.014974.105454-.035364.151968-.07009.771626-.57633 1.524137-1.176873 2.253709-1.80609.61711-.532046-.280678-1.422825-.894283-.893646-.492223.424362-.998144.832158-1.511394 1.230078v-8.986483c1.19121-1.180697 1.957102-1.910587 3.148312-3.091284" mask="url(#b)"/>
      <path fill="#738BD7" d="M1064.65291 264.706734c.03759-6.194037-.87868-17.008592-9.70013-12.331046-5.49218 2.912236-6.64516 11.249431-7.23424 16.711666-.30393 2.815703.31828 5.676646 2.42671 7.688863 1.97176 1.881915 5.37526 3.520107 8.13393 3.337873 7.03862-.464186 6.34441-10.514124 6.37373-15.407356" mask="url(#b)"/>
      <path fill="#36393F" d="M1060.81488 266.189231c-.87485.867204-1.7497 1.734726-2.62487 2.601929v-10.370759c0-.863061-1.34159-.864654-1.34159 0v5.617707c-.44698-.464186-.89396-.928373-1.34094-1.392241-.60023-.623163-1.54835.326237-.94877.948444.75252.781184 1.50471 1.562368 2.2569 2.343552.01051.010832.02198.017523.03281.027399v7.466806c-.64642-.704403-1.35815-1.336487-2.1559-1.890516-.71077-.493815-1.38236.668722-.67732 1.158395.94781.65789 1.79749 1.462012 2.49552 2.381783.09526.125525.21282.204216.3377.24627v18.101039c0 .863062 1.34159.864655 1.34159 0v-22.748956c1.19121-1.180696 2.3821-2.361393 3.57363-3.542089.61392-.608827-.33484-1.557589-.94876-.948763m-143.576677 185.73888s-3.753633-.159932-4.711954-1.836993c-.95832-1.67706-6.069468-5.27108-6.868174-6.309048 0 0 2.955245.479479 4.312441 1.117934 1.357833.639093 3.577453 2.39612 4.863284 4.153146 1.28615 1.756708 2.404403 2.874961 2.404403 2.874961m2.299841-.639347s-4.056613-1.598688-4.775672-4.792876c-.71874-3.194507-2.954927-8.465269-4.871249-10.062682-1.916959-1.597413-1.836993-3.913247-1.836993-3.913247s4.152509 1.198219 5.190796 2.794994c1.038286 1.597413 1.682795 3.306014 2.721081 4.583881 1.038287 1.277867 1.743009 3.846343 1.743009 6.402076 0 2.555415 1.829028 4.987854 1.829028 4.987854m.378932-.201286s.079966-5.108599.71874-7.10648c.639093-1.997563 1.517447-4.074136 1.517447-4.71291 0 0 .558808 3.993214 0 6.868175-.559127 2.874642-2.236187 4.951215-2.236187 4.951215m123.909314-51.084939c-.98317.030585-2.03292-.07678-2.96767-.384857-.67891-.223969-1.11634-.738812-1.71179-1.003242-.92741-.412574-1.73759-.509426-2.49201-1.296982-.24181-.252323-.4524-.532683-.6547-.817503-.51803-.728935-.85319-1.48272-1.58244-2.00266-.75761-.540329-1.49005-1.120483-2.23396-1.679291-.94335-.708864-2.0839-1.387461-2.87592-2.274099 1.24952.259333 2.49616.533321 3.73834.82515.81305.191473 1.63915.37052 2.43531.625393.4524.144959.46132.143047.61743.531727.26188.652792.26029 1.116023.95959 1.535607.79935.479479 1.7583.577923 2.42511 1.237724.68211.675093 1.28233 1.456914 1.90422 2.187443 1.31928 1.549942 2.43849 2.51559 2.43849 2.51559m1.57773-.665503c-.01243-.06117-.706-.277174-.77577-.309033-.62125-.283864-1.21861-.636226-1.7462-1.071739-.68497-.565498-.98285-1.186112-1.42155-1.916959-.50241-.836937-1.09531-1.483357-1.47348-2.436899-.40811-1.028729-.81591-2.057139-1.22402-3.085868-.16408-.414486-.32943-.83184-.41704-1.269264-.07009-.349813-.08952-.707271-.10832-1.063455-.05989-1.106784-.11915-2.213567-.17873-3.320669-.04588-.859558-.28418-1.829347-.22237-2.678391 1.60505 2.62423 2.77779 5.469562 4.33856 8.140306.27208.465461.55212.932833.89938 1.346683.30171.359051.69166.568365.97553.934426.533.687199.67413 1.589766.73626 2.432757.14687 2.00266.61775 4.297467.61775 4.298105m.68229-.144035c-.03823-.698669-.06436-1.398613-.08283-2.098237-.02868-1.090854.31572-2.017316.49126-3.089691.08666-.530772.17363-1.067597.13477-1.603785-.05416-.744546-.31382-1.502791-.24659-2.254984.07041-.785007.40333-1.608563.61297-2.366809.1526-.550843.4422-1.056127.5999-1.587855.10514-.355228.30521-1.759575.06053-2.060006.69931.858601.97457 2.082307.89588 3.187179-.17586 2.110344-.44284 4.182457-.29565 6.290252.11278 1.615572-.74359 2.976272-1.47667 4.39177-.12106.233527-.70791.932514-.69357 1.192166M853.219254 472.5161s-1.812462-2.51591-2.186169-4.590571c-.373706-2.07498-1.074287-3.820856-1.382683-4.853727-.308077-1.032552-.765254-2.459837-.331334-3.15755 0 0 2.476404 2.427022 2.736056 4.525259.259332 2.098556 1.771363 6.533973 1.16413 8.076589m-3.423925 1.068074s-1.572881 1.162219-2.852022.545427c-1.27946-.616791-4.806575-3.336598-6.668737-3.893494-1.921738-.574738-3.164241-2.23778-3.164241-2.23778s5.515121 1.529872 8.017012 2.860306c2.501573 1.330752 4.667988 2.725541 4.667988 2.725541m2.284581-1.068074s-6.469936-.804441-6.55054-4.029533c-.079966-3.225092-5.122617-6.52346-5.793887-7.206518-.67127-.682739-1.422507-4.161429-.979984-5.424003 0 0 1.368346 3.729102 4.054383 4.314352 2.686036.585251 3.450016 4.064578 4.675953 6.067876 1.225617 2.003297 3.677172 3.004308 4.594075 6.277826m-71.880107 35.177491c-1.923012-3.221906-.05193-8.029118 3.543045-9.103406 1.426967-.426274 2.953972-.325918 4.423948-.5604 4.445612-.70982 7.775521-4.293645 10.925107-7.509816 3.149585-3.216809 7.014407-6.472485 11.508764-6.21379 3.171887.182234 6.149115 2.137424 9.306347 1.78347 3.693102-.413212 5.28032-5.582343 10.463469-3.391078 2.106839 5.320781.571551 12.028386-3.59402 15.952784-2.715665 2.5586-6.294711 3.956575-9.784552 5.278726-12.080315 4.576553-24.215747 6.716844-36.792108 3.76351m166.958861-66.259055c-1.791753-1.719115-2.266772-7.747803-.058621-8.88326 1.299849-.667765 2.964485-.314449 4.224192-1.054534 1.682476-.988905 1.818515-3.317483 1.840497-5.26885.021983-1.951686.419903-4.327097 2.248612-5.008243 1.39702-.520896 2.817615.256784 4.088791.773856 1.467109.59672 2.947918 1.206502 3.67526-.57187.951312-2.326667 1.684707-4.74668 2.811243-6.993699.503373-1.002923 1.099137-1.986731 1.95742-2.708975.858283-.722882 2.021776-1.154254 3.117727-.91563.623482.135401 1.181652.472152 1.726761.803167 1.123031.68274 2.245744 1.364842 3.368457 2.047581 1.424419.865292 3.050505 1.765311 4.667351 1.362294 1.457552-.363512 2.531202-1.720071 4.007232-2.000112 2.993795-.568365 5.725709 2.270595 8.423215 3.687686.779909.409707 1.604422.807945 2.485325.821007.857964.013063 1.676423-.341847 2.442633-.728616 1.972071-.994958 3.808751-2.243196 5.791021-3.217765 1.1122-.546382 2.52419-.980303 3.51756-.239261.81272.605959 1.27659 1.642016 1.55663 2.616265-.29438.792654-1.05517 1.305584-1.79685 1.711469-6.8035 3.723367-13.629303 7.406592-20.47645 11.049038-5.245912 2.790853-10.505523 5.557811-15.847012 8.161014-4.77822 2.328579-9.657753 4.537685-14.825291 5.782737-2.899811 2.128503-7.154269.493815-8.945703-1.225299m125.259886-50.100845c-1.18802-1.489411-2.24829-3.50131-1.42378-5.21915 1.07652-2.242558 4.52653-2.290666 5.87353-4.382531.77322-1.200449.63814-2.741153.68752-4.168757.04938-1.427286.48044-3.07185 1.79398-3.633206.93093-.397601 2.00681-.109277 3.00686-.267935 2.42225-.384857 3.45384-2.953015 4.70813-4.729158 2.84342-4.026347 9.78965-7.369636 14.17983-3.361448.60022.547657 1.05039 1.24537 1.65986 1.783151 1.91696 1.691078 4.90342 1.395426 7.24825.377848 2.34514-1.017259 4.41758-2.637292 6.84938-3.423892 5.5336-1.789523 6.53939 5.617069 5.8662 9.587982-.57218 3.372918-2.52546 6.490644-5.31122 8.476419-2.96257 2.111937-6.45114 3.135887-9.53987 4.967145-3.94638 2.340047-7.24571 5.028314-11.75759 6.34027-3.27065.951311-6.62349 1.619077-10.00884 1.994058-4.50423.498594-11.00634-.798069-13.83224-4.340796" mask="url(#b)"/>
      <path fill="#8EA1E1" d="M799.829822 504.507367h434.495988V361.479338s-121.32055-1.804815-213.37792 48.736066c-92.057047 50.54152-164.258899 41.043062-221.118068 94.291963" mask="url(#b)"/>
      <path fill="#36393F" d="M1028.33856 467.643895c2.13519-1.698406 3.82436-3.7205 4.31976-6.373085 1.14725-6.141788-4.10217-11.495065-3.74025-17.681137.32783-5.600821 4.21368-11.994296 10.48513-11.842647 9.12603.221421 13.86793 13.910618 22.97962 13.355952 4.47206-.272076 7.82777-3.993213 10.94645-7.210022 3.11868-3.216808 7.33491-6.406537 11.66328-5.24846 4.57496 1.223706 7.04977 6.83759 11.7012 7.729643 3.72273.713961 6.9972-1.528279 10.62913-1.274999 4.37839.30521 8.4503 4.059162 12.94529 1.840179 1.3556-.66904 2.3993-1.819789 3.5886-2.752941 3.76065-2.949511 9.20249-3.576497 13.53564-1.559819 4.33315 2.016359 7.35753 6.583992 7.52224 11.360619.2297 6.655038-4.49977 12.327223-8.95207 17.279394-3.60581 4.010418-7.25622 8.060659-11.69514 11.123589-6.01053 4.147411-13.03036 6.146248-20.04094 7.850389-6.11057 1.485587-11.20833 4.771848-17.16598 7.059966-12.25203 4.7059-26.16424 6.847784-39.13056 4.133393-7.54136-1.579253-15.08303-3.158188-22.62439-4.737122-4.44975-.931559-9.66412-2.528335-10.97831-6.880281-1.49164-4.937516 3.1738-9.497502 7.62515-12.103254 2.12245-1.242185 4.43988-2.521644 6.38615-4.069357m205.98737-80.704204c-.53841.497001-1.06759 1.00133-1.58658 1.508844-3.71699 3.635118-7.31484 7.580543-11.98728 9.860696-4.67213 2.279833-10.83049 2.469076-14.61375-1.096589-.81273-.765892-1.49865-1.683751-2.43945-2.285568-2.65959-1.701911-6.3648-.191473-8.33242 2.278559-1.96729 2.470351-2.7523 5.643831-3.95179 8.564988-1.20013 2.921156-3.13621 5.881181-6.17174 6.75157-2.77779.796476-5.96242-.326237-8.543.97425-3.80397 1.917596-3.60199 7.332361-2.83801 11.5231 3.5405 19.412358 29.0287 20.592417 44.63836 16.603346 5.60241-1.432065 10.95601-3.79059 15.82566-6.907362v-47.775834z" mask="url(#b)"/>
      <path fill="#292A2B" d="M986.820986 503.844699c3.651684-9.091937 15.143884-16.41474 28.573424-20.604205 13.42891-4.189465 28.66296-5.582025 43.66252-5.965608 2.99379-.07678 6.1832-.153242 8.63953-1.224662 1.88542-.8226 3.06739-2.120538 4.20062-3.370687 7.89722-8.71154 17.01114-17.567719 31.01861-22.436419 14.50065-5.039784 31.98394-5.039784 47.98483-7.790176 4.14518-.712687 8.4006-1.693308 11.2351-3.711898 2.51367-1.790479 3.5921-4.166527 4.96873-6.386784 8.52103-13.741447 32.06678-23.244683 55.63228-22.453304 1.75416-4.408337 5.84168-8.441693 11.47085-11.318884v105.925295l-247.386494-.662668z" mask="url(#b)"/>
      <path fill="#FFF" mask="url(#b)" d="M527.284 407.447v-19.524l17.789 19.409"/>
      <path fill="#292A2B" d="M547.748193 409.070549h-23.140185c-.176181 0-.318591-.142728-.318591-.31859v-2.927528c0-.175862.14241-.318591.318591-.318591h23.140185c.176181 0 .318591.142729.318591.318591v2.927528c0 .175862-.14241.31859-.318591.31859" mask="url(#b)"/>
      <path fill="#FFF" mask="url(#b)" d="M788.325 442.239v-19.524l-17.788 19.409"/>
      <path fill="#292A2B" d="M767.860951 443.862546h23.140186c.17618 0 .31859-.142729.31859-.31859v-2.927529c0-.175862-.14241-.31859-.31859-.31859h-23.140186c-.17618 0-.31859.142728-.31859.31859v2.927529c0 .175861.14241.31859.31859.31859" mask="url(#b)"/>
      <path fill="#FF7A77" mask="url(#b)" d="M16.353 365.48h3.823v-23.688h-3.823M37.62 365.48h3.823v-23.688H37.62M58.887 365.48h3.823v-23.688h-3.823M80.155 365.48h3.823v-27.829h-3.823M101.421 365.48h3.823v-34.201h-3.823M122.689 365.48h3.823v-46.308h-3.823M143.956 365.48h3.823v-59.051h-3.823M165.223 365.48h3.823v-75.299h-3.823M186.49 365.48h3.824v-94.175h-3.824M207.758 365.48h3.823V249.132h-3.823"/>
      <path fill="#FF7A77" d="M158.882304 295.476525c-37.954326 29.697416-78.109794 44.755278-119.3506999 44.755278-31.62393246 0-62.759147-8.885489-92.5409891-26.409561l-1.9389419 3.294863c30.3776063 17.874521 62.1649757 26.937784 94.479931 26.937784 42.1154369 0 83.0635579-15.331213 121.7066769-45.567365 20.181435-15.791258 39.766788-35.651554 58.526353-59.317413v-6.196586c-19.478943 25.118633-39.861409 46.055127-60.88233 62.503" mask="url(#b)"/>
      <path fill="#E55C5C" mask="url(#b)" d="M-46.872 370.499h266.637v-17.495H-46.872"/>
      <path fill="#FF7A77" mask="url(#b)" d="M977.452 365.48h3.823V248.493h-3.823M998.719 365.48h3.823v-93.66h-3.823M1019.986 365.48h3.823v-75.299h-3.823M1041.253 365.48h3.823v-59.051h-3.823M1062.52 365.48h3.824v-46.308h-3.824M1083.788 365.48h3.823v-34.201h-3.823M1105.055 365.48h3.823v-28.785h-3.823M1126.322 365.48h3.823v-23.688h-3.823M1147.59 365.48h3.823v-23.688h-3.823M1168.857 365.48h3.823v-23.688h-3.823M1190.124 365.48h3.823v-27.829h-3.823"/>
      <path fill="#FF7A77" d="M1027.79412 298.487429c38.64312 30.236152 79.59124 45.567365 121.70699 45.567365 30.78445 0 61.11841-8.229193 90.15921-24.459787l-1.86471-3.336918c-28.46447 15.907544-58.17081 23.973619-88.2945 23.973619-41.22975 0-81.37503-15.049579-119.32011-44.731065-22.59158-17.67158-44.445293-40.53045-65.233325-68.190479v6.316695c20.066424 26.119006 41.109645 47.852933 62.846445 64.86057" mask="url(#b)"/>
      <path fill="#E55C5C" mask="url(#b)" d="M964.948 370.499h269.244v-17.495H964.948"/>
    </g>
    <g fill="#FF7A77">
      <path d="M336.807 366.052l-.319-257.215 3.823-.004.319 257.214M358.074 366.049h3.823V153.283h-3.823M379.341 366.049h3.823V190.098h-3.823M400.608 366.049h3.823V221.814h-3.823M421.875 366.049h3.824V249.063h-3.824M443.143 366.049h3.823v-93.66h-3.823M464.41 366.049h3.823V290.75h-3.823M485.677 366.049h3.823v-59.051h-3.823M506.944 366.049h3.823v-46.307h-3.823M528.211 366.049h3.824v-34.201h-3.824M549.479 366.049h3.823v-28.785h-3.823M570.746 366.049h3.823v-23.688h-3.823M592.013 366.049h3.823v-23.688h-3.823M613.281 366.049h3.823v-23.688h-3.823M634.548 366.049h3.823V338.22h-3.823M655.815 366.049h3.823v-34.201h-3.823M677.082 366.049h3.823v-46.307h-3.823M698.349 366.049h3.823v-59.051h-3.823M719.616 366.049h3.824V290.75h-3.824M740.884 366.049h3.823v-94.174h-3.823M762.151 366.049h3.823V249.701h-3.823M783.418 366.049h3.823V222.303h-3.823M804.686 366.049h3.823V190.125h-3.823M825.953 366.049h3.823V154.443h-3.823M847.22 366.049h3.823V108.835h-3.823"/>
    </g>
    <g transform="translate(-71 -73.98)">
      <path fill="#FF7A77" d="M664.9248 418.604912c-42.115437 0-83.063877-15.330894-121.706996-45.567365-30.807066-24.104877-60.225078-57.690372-87.436213-99.823012-13.344801-20.662189-33.353879-54.719516-52.895266-99.62931-11.690361-26.86642-17.749952-45.14364-17.809847-45.325236l3.630976-1.197582c.059258.180322 6.081574 18.339026 17.716182 45.070045 10.73204 24.657632 28.571198 61.861359 52.611083 99.072414 26.977289 41.757978 56.103791 75.014687 86.569965 98.845895 37.945087 29.681486 78.09036 44.731065 119.320116 44.731065 41.229755 0 81.375028-15.049579 119.319797-44.731065 30.466493-23.831208 59.592675-57.087917 86.570284-98.845895 13.268658-20.538894 33.167185-54.399332 52.611083-99.072414 11.634607-26.731019 17.656924-44.889723 17.716182-45.070045l3.630976 1.197582c-.059895.181596-6.119487 18.458816-17.809848 45.325236-10.785882 24.788254-28.718068 62.194605-52.895266 99.62931-27.211453 42.13264-56.629465 75.718135-87.436213 99.823012-38.643118 30.236471-79.591558 45.567365-121.706995 45.567365z"/>
      <mask id="d" fill="#fff">
        <use xlink:href="#c"/>
      </mask>
      <path fill="#FF7A77" mask="url(#d)" d="M300.071 440.03h3.823V296.921h-3.823M321.338 440.03h3.823V263.15h-3.823M342.605 440.03h3.823V228.424h-3.823M363.872 440.03h3.824V182.816h-3.824"/>
      <path fill="#FF7A77" d="M386.794636 127.062693c-.237668.720334-24.282969 72.849228-70.285529 144.077467-8.367462 12.955483-16.942007 25.091552-25.698786 36.383675v6.196267c9.876943-12.459757 19.52482-25.974048 28.910178-40.505599 24.177198-37.434705 42.109384-74.841056 52.894948-99.62931 11.69036-26.86642 17.749952-45.14364 17.809847-45.325236l-3.630658-1.197264zM963.429 440.033l-.319-257.215 3.823-.005.319 257.215M984.696 440.03h3.823V227.264h-3.823M1005.963 440.03h3.823V264.079h-3.823M1027.23 440.03h3.823V295.794h-3.823" mask="url(#d)"/>
      <path fill="#FF7A77" d="M1014.65659 271.204834c-24.039885-37.211055-41.879043-74.414782-52.611083-99.072414-11.634607-26.731019-17.656924-44.889723-17.716182-45.069727l-3.630976 1.197264c.059895.181596 6.119805 18.458816 17.810166 45.325236 10.785563 24.788254 28.71775 62.194605 52.894945 99.62931 8.01192 12.405277 16.21626 24.063142 24.59009 34.962442v-6.316694c-7.24602-9.641505-14.36397-19.861889-21.33696-30.655417" mask="url(#d)"/>
      <path fill="#E55C5C" mask="url(#d)" d="M290.81 445.049h745.183v-17.494H290.81"/>
      <path fill="#F9B5B5" mask="url(#d)" d="M386.892 119.752l-3.987-8.02h7.974"/>
      <path fill="#FF9292" mask="url(#d)" d="M937.223 425.681h11.469V121.242h-11.469"/>
      <path fill="#F9B5B5" mask="url(#d)" d="M942.958 119.752l-3.988-8.02h7.975"/>
      <path fill="#FF9292" mask="url(#d)" d="M381.157 425.681h11.47V121.242h-11.47"/>
      <path fill="#FF7A77" mask="url(#d)" d="M379.588 578.998h14.608V235.555h-14.608M935.654 450.975h14.607V235.554h-14.607"/>
      <path fill="#F36C6C" mask="url(#d)" d="M377.334 578.998h19.116V396.119h-19.116M952.515286 535.565292V396.119176h-19.115432v145.886423c6.227808-2.297356 12.598662-4.41216 19.115432-6.440307"/>
    </g>
  </g>
</svg>
